<!--
Credits:
waves: https://codepen.io/andyfitz/pen/akAKdV
boat: https://cdn1.vectorstock.com/i/1000x1000/81/80/aircraft-carrier-flat-icon-vector-28958180.jpg
torpedo: https://www.flaticon.com/free-icon/torpedo_473413
-->
<svg id="Layer_1" data-name="Layer 1" xmlns="http://www.w3.org/2000/svg" viewBox="0 0 140 140">
<style type="text/css">
	.st__0{fill:#57555C;}
	.st__1{fill:#424148;}
	.st__2{fill:#AEADB3;}
	.st__3{fill:#E70020;}
	.st__4{fill:#9B0013;}
	.st__5{fill:#8B8892;}
	.st_1{fill:#FFFF00;stroke:#FF0000;stroke-width:1;stroke-miterlimit:10;}
	.st0{fill:#D50000;}
	.st1{fill:#283138;}
	.st2{fill:#77909B;}
	.st3{fill:#8FA3AC;}
	.st4{fill:#CCD6DC;}
	.st5{fill:#CDD6DB;}
	.st6{fill:#AEBEC5;}
	.st7{fill:#8E0708;}
	.st8{fill:#243035;}
	.st9{fill:#8C0203;}
	.st10{fill:#475B65;}
	.st11{fill:#AEBDC5;}
	.st12{fill:#AEBDC4;}
	.st13{fill:#404F57;}
	.st14{fill:#394952;}
	.st15{fill:#273137;}
	.st16{fill:#3B4B52;}
	.st17{fill:#435159;}
	.st18{fill:#394951;}
	.st19{fill:#718691;}
	.st20{fill:#B3C1C6;}
	.st21{fill:#33434C;}
	.st22{fill:#3A4A52;}
	.st23{fill:#D3DADE;}
	.st24{fill:#354750;}
	.st25{fill:#283339;}
	.st26{fill:#374850;}
	.st27{fill:#7A8E98;}
	.st28{fill:#263037;}
	.st29{fill:#3B464B;}
	.st30{fill:#435158;}
	.st31{fill:#46555B;}
	.st32{fill:#455965;}
	.st33{fill:#4C5E69;}
	.st34{fill:#455760;}
	.st35{fill:#212D34;}
	.st36{fill:#35434A;}
	.st37{fill:#718591;}
	.st38{fill:#39474E;}
	.st39{fill:#4B5A62;}
	.st40{fill:#4B585F;}
	.st41{fill:#CCD4DA;}
	.st42{fill:#8A9AA5;}
	.st43{fill:#54646A;}
	.st44{fill:#213237;}
	.st45{fill:#213137;}
	.st46{fill:#1F2F36;}
	.st47{fill:#24343A;}
	.st48{fill:#2A373F;}
	.st49{fill:#33414B;}
	.st50{fill:#FEF9F6;}
	.st51{fill:#D7030B;}
	.st52{fill:#373E47;}
	.st53{fill:#F4F6F7;}
	.st54{fill:#F7F9FA;}
	.st55{fill:#718590;}
	.st56{fill:#768E98;}
	.st57{fill:#7F949F;}
	.st58{fill:#778F9B;}
	.st59{fill:#C8D4D9;}
	.st60{fill:#7F95A0;}
	.st61{fill:#7F95A1;}
	.st62{fill:#768E9A;}
	.st63{fill:#CCD5DB;}
	.st64{fill:#CDD5DA;}
	.st65{fill:#788B91;}
	.st66{fill:#778C97;}
	.st67{fill:#7E929D;}
	.st68{fill:#90A3AC;}
	.st69{fill:#78909C;}
	.st70{fill:#44545C;}
	.st71{fill:#2B3D45;}
	.st72{fill:#B7C1C7;}
	.st73{fill:#364750;}
	.st74{fill:#2A3B42;}
	.st75{fill:#2F3D44;}
	.st76{fill:#778D98;}
	.st77{fill:#79909C;}
	.st78{fill:#7B909A;}
	.st79{fill:#758C99;}
	.st80{fill:#768C98;}
	.st81{fill:#758C97;}
	.st82{fill:#788F9C;}
	.st83{fill:#788F9B;}
	.st84{fill:#718B97;}
	.st85{fill:#778E99;}
	.st86{fill:#7A919C;}
	.st87{fill:#778E9A;}
	.st88{fill:#7B909D;}
	.st89{fill:#AFBDC5;}
	.st90{fill:#4D606A;}
	.st91{fill:#C5D0D7;}
	.st92{fill:#7D929D;}
	.st93{fill:#7D939F;}
	.st94{fill:#8096A1;}
	.st95{fill:#7B8F9C;}
	.st96{fill:#8296A3;}
	.st97{fill:#7E939E;}
	.st98{fill:#465A64;}
	.st99{fill:#8195A1;}
	.st100{fill:#465A65;}
	.st101{fill:#7E929C;}
	.st102{fill:#7E939D;}
	.st103{fill:#465965;}

	#Layer_1:hover > #bomb
	{
		animation: bombAnimation 3s ease-in;
	}
	#Layer_1:hover > #boat
	{
		animation: boatAnimation 2s ease-in-out infinite;
	}
	#Layer_1:hover > .waves > use
	{
		animation: wavesAnimation 3s ease-in-out infinite;
	}

	#Layer_1:hover > #explosion
	{
		animation: explosionAnimation 3s ease-out;
	}
	
	#boat{
		transform-box: fill-box;
		transform-origin: 50% 50%;
		transform: translateY(8px);
	}

	@keyframes boatAnimation{
	  0%{transform: translateY(8px) rotate(0.5deg)}
	  50%{transform: translateY(8px) rotate(-1.5deg)} 
	  100%{transform: translateY(8px) rotate(0.5deg)}
	}

	.waves > use {
	  transform-box: fill-box;
	  transform: translate(-250px , 60px) scaleX(4)
	}

	#Layer_1:hover > .waves > #wave1{animation-delay:-2s;}
  	#Layer_1:hover > .waves > #wave2{animation-delay:-2s; animation-duration:5s}
  	#Layer_1:hover > .waves > #wave3{animation-delay:-4s; animation-duration:3s}

	@keyframes wavesAnimation{
	  0%{transform: translate(-250px , 60px) scaleX(4)}
	  100%{transform: translate(-200px , 60px) scaleX(4)} 
	}
	

	#bomb {
		transform-box: fill-box;
		transform: rotate(-20deg) scale(0);
	}
	@keyframes bombAnimation {
		0%   {transform: translate(0px,-10px) rotate(-20deg) scale(0.4)}
		50% {transform:translate(40px,90px) rotate(-20deg) scale(0.42)}
		100% {transform:translate(40px,90px) rotate(-20deg) scale(0.42)}
	}

	#explosion {
		transform-box: fill-box;
		transform-origin: 50% 50%;
		transform:translate(45px,85px) scale(0);
	}
	@keyframes explosionAnimation {
		0%   {transform: translate(45px,85px) scale(0);}
		50%  {transform: translate(45px,85px) scale(0);}
		100% {transform: translate(45px,85px) scale(20) ;}
	}
</style>
		<g id="boat">
			<path class="st0" d="M129.64,109.57c0.93-0.19,1.77-0.57,2.56-1.08c-0.18-0.22-0.44-0.22-0.69-0.24
				c-0.23-0.02-0.46-0.01-0.69-0.01c-38.68,0-77.35,0-116.03,0c-0.48,0-0.97-0.07-1.41,0.22c-0.25,0.64-0.5,1.28-0.75,1.92
				c-0.34,0.89-0.26,1.18,0.44,1.8c0.47,0.19,0.95,0.08,1.43,0.08c16.22,0.01,32.44,0.01,48.67,0.01c16.06,0,32.12,0,48.18,0
				c2.83-0.32,5.6-0.99,8.4-1.52c1-0.13,2.03,0,2.98-0.47c1.56-0.18,3.12-0.36,4.68-0.54C128.17,110.01,128.91,109.77,129.64,109.57
				z"/>
			<path class="st1" d="M13.38,108.46c14.48,0,28.95,0.01,43.43,0.01c24.86,0,49.71,0,74.57,0c0.28,0,0.55,0.01,0.83,0.02
				c0.31-0.19,0.34-0.55,0.5-0.83c0.01-0.15-0.08-0.2-0.21-0.22c-0.25,0.01-0.49,0.06-0.71,0.19c-0.22,0.1-0.45,0.09-0.68,0.09
				c-0.28,0-0.55,0-0.83,0c-19.4,0-38.79,0-58.19,0c-13.85,0-27.71,0-41.56,0c-0.41,0-0.83,0.03-1.24-0.05
				c-3.94,0.11-7.88,0.05-11.82,0.04c-1.07,0-2.15,0.1-3.22-0.02c-0.26-0.03-0.42,0.15-0.64,0.21
				C13.54,108.08,13.46,108.27,13.38,108.46z"/>
			<path class="st2" d="M89.15,98.4c0.01,0.04,0.02,0.07,0.03,0.11c0.15,1.19,0.15,1.18,1.4,1.19c1.93,0.01,3.86-0.01,5.79-0.01
				c0.94,0,0.94-0.01,1.06-0.9c0.02-0.12,0.04-0.24,0.05-0.36c-0.04-0.17,0.11-0.29,0.12-0.45c0.04-0.23,0.03-0.47,0.06-0.7
				c0.19-0.36,0.53-0.16,0.79-0.2c0.41-0.06,0.87,0.12,1.23-0.24c-0.73-0.26-1.48-0.04-2.21-0.12c-0.2-0.24-0.12-0.54-0.09-0.79
				c0.07-0.61-0.24-0.77-0.76-0.78c-0.9-0.01-1.79,0-2.69-0.01c-0.41,0-0.83,0.02-1.24-0.06c0.47-0.08,0.95-0.06,1.43-0.06
				c0.78,0,1.56,0.02,2.34-0.01c0.35-0.02,0.88,0.14,0.9-0.46c0.01-0.61-0.52-0.48-0.87-0.49c-0.99-0.03-1.98-0.01-2.97-0.01
				c-0.28,0-0.55,0.01-0.83-0.07c1.05-0.05,2.11-0.05,3.16-0.05c0.34,0,0.69,0.02,1.03-0.03c0.26-0.04,0.49-0.12,0.48-0.46
				c0-0.35-0.23-0.43-0.49-0.45c-0.76-0.07-1.52-0.02-2.27-0.03c-0.64-0.01-1.28,0.02-1.92-0.07c1.11-0.07,2.22-0.05,3.33-0.06
				c0.18,0,0.37,0,0.55-0.01c0.73-0.04,0.78-0.14,0.81-0.86c0.03-0.69-0.43-0.49-0.78-0.52c-0.07-0.01-0.14,0-0.21,0
				c-0.17,0.04-0.3-0.13-0.47-0.07l-0.03,0.02l0.01,0.04c-0.65,0.23-1.29,0.34-1.91-0.09c-0.11-0.05-0.21-0.05-0.3,0.03
				c-0.05,0.04-0.11,0.07-0.16,0.11c-0.72,0.17-1.45,0.15-2.17,0.01c-0.26-0.38-0.11-0.8-0.12-1.2c-0.28-0.1-0.21,0.12-0.23,0.25
				c-0.05,0.27,0.1,0.56-0.09,0.81c-0.04,0.04-0.09,0.08-0.13,0.12c-0.31,0.28-0.67,0.03-1.01,0.1c-0.32,0.06-0.42,0.12-0.43,0.44
				c-0.01,0.37,0.18,0.41,0.47,0.4c0.15-0.01,0.3-0.01,0.42,0c-0.31,0.05-0.65-0.09-0.98,0.07c0.17,0.49,0.67,0.21,0.99,0.4
				c-0.3,0.25-0.85-0.1-0.99,0.44c0,0.04,0,0.07,0,0.11c-0.11,0.32,0.11,0.39,0.34,0.45c0.2,0.05,0.41,0,0.64,0.11
				c-0.31,0.24-0.86-0.09-0.99,0.44c0,0.08,0,0.16,0,0.25c0.15,0.52,0.66,0.21,0.98,0.42c-0.29,0.24-0.85-0.1-0.98,0.43
				c0,0.02,0,0.05,0,0.07c0.01,1.11,0.01,1.11-1.08,1.17c0.02,0.3,0.27,0.25,0.45,0.28c0.18,0.03,0.37,0.02,0.42,0.26
				c0.08,0.25,0.07,0.51,0.03,0.77C89.08,98.18,89.15,98.28,89.15,98.4z"/>
			<path class="st3" d="M8.92,100.58c-0.43,0-0.85,0.02-1.01,0.52c-0.15,0.49,0.19,0.78,0.51,1.04c0.78,0.65,1.68,1.11,2.53,1.65
				c0.66,0.42,1.3,0.86,1.86,1.41c0.67,0.66,1.08,1.42,0.93,2.39c0.04,0.09,0.11,0.12,0.21,0.08c0.63,0.02,1.26,0.03,1.89,0.02
				c0.27,0,0.55,0.02,0.76-0.21c0.11-0.16,0.12-0.34,0.12-0.53c0.01-1.94,0.01-3.89,0-5.83c0-0.16-0.02-0.32-0.09-0.47
				c-0.14-0.21-0.36-0.23-0.58-0.26c-0.21,0-0.41,0.01-0.62,0c-0.39-0.01-0.79,0-1.18,0c-0.16,0.01-0.31,0.01-0.47,0.01
				c-0.12,0-0.24,0-0.36-0.01c-0.44,0-0.88-0.01-1.32,0c-0.57,0.02-1.14,0.01-1.71,0c-0.08-0.01-0.16-0.01-0.25,0.01
				C9.74,100.59,9.32,100.48,8.92,100.58z"/>
			<path class="st4" d="M13.48,100.58c0.09,0,0.19,0,0.28,0c0.23-0.15,0.06-0.44,0.21-0.62c0.08-0.02,0.16-0.05,0.23-0.09
				c0.27-0.11,0.54-0.06,0.81,0.02c0.33,0.04,0.36,0.35,0.49,0.57c0.45,0.11,0.2-0.39,0.42-0.49c0.08-0.03,0.16-0.06,0.24-0.1
				c0.54-0.1,1.07-0.12,1.59,0.09c0.1,0.01,0.2-0.02,0.29-0.06c0.17-0.09,0.36-0.06,0.54-0.09c0.6-0.09,1.01,0.07,1.06,0.76
				c0.07,0.09,0.16,0.11,0.27,0.1c0.28-0.22,0.08-0.53,0.15-0.8c0.06-0.04-0.13-0.13,0-0.12c0.17,0.01,0.33,0.07,0.5,0.1
				c0.06,0.01,0.12,0,0.18,0c0.52-0.05,1.04-0.03,1.55,0c0.06,0.01,0.12,0.01,0.19,0c0.29,0,0.6-0.2,0.84,0.12
				c0.02,0.06,0.04,0.12,0.06,0.17c0.09,0.14,0.09,0.4,0.37,0.3c0.13-0.15,0.11-0.35,0.2-0.51c0.37-0.29,0.81-0.06,1.19-0.18
				c0.09-0.03,0.14,0,0.05,0.01c-0.01,0-0.01,0.04-0.02,0.07c0.03,0.14,0.11,0.23,0.23,0.29c0.1,0.03,0.21,0.03,0.32,0.02
				c0.43-0.14,0.96,0.12,1.32-0.3c-0.29-0.29-0.65-0.08-0.97-0.15c0.34,0.07,0.7-0.1,1.03,0.09c-0.01,0.14,0.05,0.24,0.16,0.31
				c0.09,0.04,0.18,0.05,0.27,0.03c0.12-0.05,0.18-0.14,0.24-0.25c0.18-0.17,0.36-0.01,0.54,0.01c0.29,0.06,0.61,0.04,0.85,0.28
				c0.2,0.14,0.18,0.43,0.42,0.54c0.46,0.14,0.93,0.1,1.4,0.04c0.35-0.06,0.35-0.43,0.53-0.63c0.2-0.21,0.48-0.17,0.73-0.23
				c0.22-0.02,0.43-0.19,0.65-0.02c0.04,0.11,0.1,0.2,0.21,0.26c0.09,0.03,0.18,0.03,0.26,0c0.11-0.06,0.17-0.16,0.23-0.25
				c0.42-0.13,0.83-0.04,1.25-0.01c0.06,0.01,0.12,0.01,0.18,0c0.21-0.18,0.28-0.03,0.34,0.15c0.28,0.13,0.58,0.09,0.87,0.09
				c0.27,0.01,0.49,0.1,0.64,0.32c0.29,0.17,0.31-0.1,0.4-0.25c0.02-0.06,0.04-0.11,0.06-0.17c0.15-0.3,0.39-0.13,0.6-0.13
				c0.06,0.01,0.13,0,0.19,0c0.39-0.09,0.77-0.02,1.14,0.1c0.51,0.21,1.03-0.02,1.54,0.05c0.24,0.18,0.04,0.6,0.39,0.72
				c0.53,0.13,1.06,0.14,1.59-0.01c0.28-0.15,0.09-0.44,0.2-0.66c-0.05,0.19-0.04,0.37,0,0.55c0.08,0.08,0.18,0.09,0.28,0.04
				c0.19-0.25,0.04-0.53,0.06-0.79c0.29-0.32,0.67-0.06,0.99-0.16c-0.3,0.09-0.65-0.14-0.92,0.15c0.36,0.41,0.81,0.25,1.25,0.2
				c0.07,0.06,0.08-0.24,0.14-0.03c0.05,0.18,0,0.39,0.23,0.48c0.21-0.26,0.44-0.49,0.77-0.6c0.44-0.23,0.81-0.06,1.16,0.2
				c0.15-0.01,0.21-0.11,0.24-0.23c0.48-0.06,0.95-0.17,1.4,0.12c0.03,0.06,0.06,0.1,0.11,0.13c0.09,0.03,0.18,0.03,0.26-0.01
				c0.07-0.06,0.13-0.12,0.19-0.19c0.39-0.21,0.83,0.01,1.22-0.18c0.08-0.04,0.13-0.03,0.04-0.01c-0.01,0-0.01,0.04-0.01,0.06
				c0.01,0.1,0.06,0.17,0.13,0.23c0.11,0.07,0.23,0.12,0.36,0.08c0.11-0.07,0.18-0.17,0.17-0.31c0.33-0.19,0.71,0.01,1.05-0.1
				c-0.33,0.09-0.69-0.09-1,0.12c0.08,0.3,0.34,0.29,0.56,0.28c0.4-0.01,0.65,0.16,0.8,0.51c0.08,0.07,0.18,0.09,0.28,0.07
				c0.29-0.17,0.15-0.62,0.49-0.76c0.34-0.13,0.68-0.13,1.03-0.06c0.01,0,0.02,0.03,0.02,0.04c0,0.02-0.02,0.04-0.03,0.06
				c0,0.29-0.01,0.59,0.28,0.77c0.69,0.14,1.37,0.17,2.05-0.02c0.22-0.14,0.22-0.37,0.23-0.6c0.35-0.57,0.81-0.27,1.24-0.15
				c0.09,0.17,0.07,0.37,0.13,0.54c0.03,0.06,0.07,0.12,0.12,0.16c0.1,0.04,0.2,0.03,0.3-0.03c0.17-0.23,0.17-0.5,0.19-0.76
				c1.01-0.04,2-0.24,2.89-0.16c-0.41,0.04-0.95-0.06-1.48,0.05c-0.17,0.21-0.17,0.45-0.11,0.7c0.03,0.08,0.07,0.15,0.14,0.21
				c0.63,0.24,1.28,0.15,1.92,0.09c0.11-0.03,0.2-0.09,0.28-0.17c0.16-0.22,0.05-0.61,0.43-0.71c1.57-0.08,3.14-0.05,4.71-0.01
				c0.16,0.06,0.3,0.15,0.4,0.28c0.13,0.12,0.15,0.38,0.42,0.33c0.16-0.32,0.36-0.59,0.76-0.59c0.27-0.04,0.55-0.22,0.78,0.08
				c0.01,0.06,0.02,0.11,0.04,0.17c0.08,0.15,0.09,0.39,0.36,0.32c0.14-0.31,0.27-0.56,0.72-0.6c0.54-0.04,0.71,0.29,0.92,0.64
				c0.1,0.04,0.19,0.03,0.28-0.02c0.14-0.15,0.13-0.36,0.2-0.53c0.23-0.27,0.5-0.15,0.76-0.07c0.38,0.04,0.5,0.38,0.7,0.63
				c0.1,0.03,0.19,0.03,0.27-0.03c0.15-0.16,0.12-0.41,0.28-0.57c0.35-0.22,0.75-0.06,1.13-0.14c0.09-0.02-0.03,0,0.07,0
				c0.05,0,0.04,0.03-0.02,0.07c-0.02,0.24,0.01,0.47,0.18,0.65c0.1,0.05,0.2,0.04,0.3-0.01c0.17-0.2,0.2-0.43,0.17-0.68
				c-0.02-0.06-0.05-0.08-0.08-0.05c-0.04,0.03-0.02-0.05-0.02-0.05c0.44,0.18,0.92,0,1.37,0.13c0.03,0.12,0.1,0.21,0.21,0.27
				c0.09,0.03,0.18,0.03,0.26-0.02c0.07-0.06,0.1-0.14,0.14-0.22c0.44-0.09,0.88-0.19,1.29,0.09c0.09,0.17,0.07,0.39,0.22,0.53
				c0.1,0.05,0.2,0.05,0.3,0c0.19-0.18,0.16-0.44,0.28-0.65c1.53-0.07,3.07-0.01,4.6-0.02c0.12,0,0.22,0.05,0.31,0.12
				c0.18,0.18,0.13,0.47,0.29,0.66c0.09,0.07,0.2,0.08,0.3,0.04c0.22-0.21,0.21-0.5,0.22-0.77c-0.02-0.08-0.05-0.16-0.17-0.13
				c0.05-0.05,0.1-0.04,0.15-0.02c0.16,0.07,0.33,0.1,0.48,0.18c0.31,0.17,0.62,0.05,0.92-0.02c0.26-0.09,0.53-0.07,0.81-0.07
				c0.55-0.03,0.75,0.34,0.88,0.78c0.06,0.03,0.12,0.04,0.18,0.02c0.13-0.19,0.01-0.39,0.06-0.54c0.04,0.09-0.02,0.25,0.04,0.39
				c0.16,0.22,0.33,0.19,0.5,0.02c0.47-0.58,0.94-0.58,1.41,0c0.18,0.18,0.35,0.18,0.53,0c0.3-0.58,0.81-0.41,1.28-0.35
				c0.24,0.06,0.16,0.74,0.65,0.34c0.03-0.37,0.2-0.52,0.59-0.46c0.26,0.04,0.53-0.06,0.77,0.1c0.16,0.19,0.08,0.65,0.54,0.49
				c0.17-0.22,0.18-0.49,0.17-0.75c0.28-0.18,0.59-0.01,0.88-0.05c0.24-0.04,0.49,0.01,0.7-0.16c0.05-0.06,0.06-0.12,0.03-0.19
				c-0.01-0.23-0.02-0.45-0.03-0.68c-0.02,0.68-0.42,0.74-0.99,0.73c-2.11-0.03-4.22-0.03-6.34,0c-0.59,0.01-0.92-0.1-0.82-0.77
				c0.01-0.07-0.07-0.16-0.11-0.23c-0.03,0.99-0.03,0.99-1.02,0.99c-26.17,0-52.34,0-78.5,0.01c-0.28,0-0.6-0.12-0.85,0.13
				c0.28,0.14,0.58,0.04,0.84,0.06c-0.25,0.06-0.56-0.07-0.83,0.08c0.11,0.16,0.28,0.14,0.43,0.13c0.44-0.05,0.57,0.17,0.51,0.56
				c0.33,0.06,0.25-0.28,0.39-0.4c0.04-0.07,0.08-0.15,0.12-0.22c0.41-0.04,0.83-0.13,1.21,0.1c0.06,0.17,0.06,0.37,0.18,0.52
				c0.29,0.09,0.29-0.16,0.38-0.31c0.02-0.06,0.04-0.12,0.06-0.17c0.39-0.3,0.81-0.21,1.22-0.07
				C13.5,100.1,13.38,100.36,13.48,100.58z"/>
			<path class="st3" d="M132.53,107.53c0.06,0.04,0.12,0.09,0.19,0.13c0.56-1.34,1.13-2.69,1.74-4.16c-0.54,0-0.98,0.01-1.42,0
				c-0.27-0.01-0.69,0.13-0.62-0.37c0.06-0.42-0.36-1.09,0.53-1.13c0.56-0.13,1.11-0.13,1.67,0c0.49,0.14,0.57-0.24,0.69-0.55
				c0.11-0.27,0.3-0.52,0.27-0.83c-0.79-0.15-1.58-0.04-2.37-0.06c-0.34-0.01-0.68-0.03-1.01-0.13c-0.42-0.05-0.85-0.01-1.27-0.02
				c-0.25,0.02-0.51,0.02-0.77,0.01c-0.22,0.02-0.45,0.04-0.6,0.24c-0.03,0.06-0.07,0.12-0.07,0.19c-0.08,2.12-0.05,4.25-0.01,6.37
				c0,0.12,0.05,0.22,0.12,0.32c0.69,0.35,1.43,0.17,2.14,0.14C131.98,107.64,132.26,107.6,132.53,107.53z"/>
			<path class="st5" d="M130.17,100.58c0.23,0,0.47,0,0.7,0c-0.04-0.33-0.05-0.61,0.43-0.64c0.5-0.03,0.77,0.14,0.8,0.64
				c1.15,0.01,2.31,0.02,3.46,0.02c-0.75-0.29-1.54-0.05-2.3-0.14c-0.25-0.03-0.69,0.19-0.7-0.29c-0.01-0.4,0.41-0.26,0.65-0.31
				c0.13-0.03,0.3,0.03,0.32-0.15c0.01-0.18-0.16-0.2-0.29-0.2c-0.18-0.01-0.37-0.01-0.55-0.01c-9.24,0-18.48,0-27.72,0
				c-0.3,0-0.6-0.01-0.9-0.01c-0.03,0-0.06-0.01-0.1-0.01c-0.26,0-0.52-0.02-0.77,0.11c-0.12,0.09-0.19,0.2-0.23,0.34
				c-0.04,0.18-0.03,0.36,0.07,0.52c0.05,0.05,0.11,0.08,0.18,0.08c0.25-0.03,0.27-0.25,0.35-0.42c0.1-0.2,0.28-0.16,0.45-0.15
				c0.55-0.08,0.83,0.19,0.92,0.71c0.16,0.08,0.32,0.08,0.48-0.01c0.2-0.2-0.02-0.61,0.42-0.71c0.59-0.13,0.84,0.09,0.76,0.72
				c0.07,0.04,0.14,0.08,0.21,0.09c1.26,0.11,2.52,0.05,3.78,0.05c2.2-0.01,4.4,0.06,6.6-0.04c0.07-0.01,0.14-0.04,0.21-0.08
				c0.05-0.04,0.12-0.11,0.09-0.16c-0.34-0.55,0-0.56,0.43-0.6c0.72-0.06,0.33,0.46,0.43,0.73c0.23,0.12,0.46,0.12,0.69,0.03
				c0.22-0.31,0.16-0.88,0.86-0.7c0.39,0.1,0.63,0.06,0.32,0.52c-0.04,0.05,0.02,0.12,0.08,0.17c0.2,0.1,0.39,0.1,0.59,0
				c0.27-0.15,0.12-0.58,0.46-0.7c0.5-0.19,0.94,0.09,1.01,0.69c0.19,0.11,0.39,0.11,0.59,0.02c0.25-0.17,0.02-0.6,0.41-0.72
				c0.55-0.17,0.87,0.05,0.93,0.7c0.19,0.11,0.39,0.11,0.58,0.02c0.25-0.19,0.01-0.72,0.54-0.73c0.42,0,0.85-0.1,0.86,0.53
				c0,0.13,0.1,0.19,0.21,0.24c0.71,0.12,1.43,0.1,2.14,0.01c0.11-0.04,0.23-0.09,0.23-0.22c0-0.43,0.2-0.59,0.63-0.59
				C129.94,99.94,130.14,100.15,130.17,100.58z"/>
			<path class="st6" d="M96.19,91.48c0.21,0,0.42,0.02,0.62,0c0.39-0.04,0.53,0.12,0.52,0.51c0,0.38-0.06,0.6-0.52,0.59
				c-1.38-0.02-2.76-0.01-4.14,0c-0.22,0-0.58-0.13-0.58,0.28c0,0.4,0.36,0.27,0.58,0.27c1.36,0.01,2.71,0,4.07,0.01
				c0.23,0,0.58-0.11,0.55,0.3c-0.02,0.34-0.34,0.24-0.55,0.24c-1.36,0.01-2.71,0-4.07,0.01c-0.22,0-0.58-0.13-0.58,0.27
				c0,0.41,0.35,0.28,0.58,0.28c1.36,0.01,2.71,0,4.07,0.01c0.21,0,0.53-0.11,0.55,0.23c0.03,0.41-0.33,0.3-0.55,0.3
				c-1.36,0.01-2.71,0-4.07,0.01c-0.22,0-0.58-0.13-0.58,0.28c0,0.4,0.36,0.27,0.58,0.27c1.31,0.01,2.62,0.04,3.93-0.01
				c0.59-0.02,0.79,0.17,0.72,0.74c-0.02,0.21-0.11,0.47,0.15,0.62c-0.01-0.18,0-0.37-0.02-0.55c-0.09-0.62,0.13-0.89,0.78-0.8
				c0.22,0.03,0.57,0.12,0.56-0.29c-0.01-0.41-0.37-0.23-0.59-0.27c-0.13-0.02-0.28-0.01-0.41-0.01c-0.18,0-0.32-0.04-0.33-0.26
				c0-0.22,0.13-0.27,0.31-0.27c0.23,0,0.46,0,0.69-0.01c0.18,0,0.32-0.05,0.33-0.26c0.02-0.26-0.15-0.3-0.35-0.31
				c-0.18,0-0.37,0-0.55,0c-0.2-0.01-0.44,0.03-0.43-0.29c0.01-0.27,0.22-0.25,0.4-0.25c0.21-0.01,0.41,0,0.62-0.01
				c0.18,0,0.31-0.06,0.31-0.28c0-0.21-0.11-0.28-0.3-0.29c-0.11,0-0.23-0.02-0.34,0c-0.51,0.07-0.8-0.09-0.7-0.67
				c0.07-0.41-0.1-0.6-0.54-0.56c-0.23,0.02-0.46-0.01-0.69-0.01c-0.05,0.02-0.07,0.05-0.07,0.09
				C96.17,91.46,96.18,91.48,96.19,91.48z"/>
			<path class="st7" d="M111.51,112.22c0.21,0.03,0.42,0.06,0.63,0.09c2.13-0.01,4.26-0.04,6.39-0.03c0.41,0,0.65-0.11,0.76-0.5
				c0.11-0.12,0.22-0.24,0.27-0.4c0.05-0.27,0.32-0.51,0.15-0.82c-2.21,0.44-4.41,0.88-6.62,1.31
				C112.55,111.98,111.98,111.87,111.51,112.22z"/>
			<path class="st8" d="M13.88,107.63c-0.05-0.01-0.09-0.02-0.14-0.04c-0.04,0.1-0.08,0.2-0.13,0.3c0.35,0.01,0.7,0.02,1.05,0.02
				c4.41,0,8.82,0.01,13.23-0.02c0.44,0,0.9,0.08,1.33-0.12c0.19,0.12,0.4,0.06,0.61,0.06c3,0,6,0.01,9.01-0.01
				c0.21,0,0.52,0.19,0.62-0.2c-0.18-0.18-0.42-0.18-0.64-0.18c-4.67,0.01-9.33-0.04-14,0.02c-0.42,0.13-0.83,0.15-1.25,0
				c-2.16-0.06-4.32-0.1-6.48,0.01C16.02,107.53,14.94,107.47,13.88,107.63z"/>
			<path class="st9" d="M129.64,109.57c-0.76-0.14-1.49,0.16-2.24,0.17c0.19,0.7,0.37,1.41,0.57,2.11c0.23,0.78,0.87,0.35,1.33,0.41
				c0.48,0.06,0.36-0.36,0.36-0.63C129.66,110.94,129.65,110.25,129.64,109.57z"/>
			<path class="st10" d="M104.07,99.48c-0.08-1.95,0.19-3.91-0.24-5.84c-0.07-0.31,0.04-0.4,0.35-0.41c0.23,0,0.5,0.12,0.71-0.11
				c-0.31-0.23-0.67-0.1-1.01-0.13c-0.37,0.08-0.74,0.07-1.11,0c-0.38,0.04-0.78-0.11-1.14,0.13c0.35,0.33,1.01-0.18,1.18,0.29
				c0.13,0.38-0.07,0.88-0.13,1.33c0.01,0.03,0.02,0.06,0.03,0.1c0.05,0.09,0.13,0.15,0.23,0.19c0.24,0.1,0.52-0.01,0.75,0.14
				c0.17,1.23,0.03,2.46,0.07,3.68c0,0.2,0.01,0.4,0.12,0.58c0.06,0.08,0.12,0.08,0.19,0.01L104.07,99.48z"/>
			<path class="st11" d="M89.28,94.4c0.18-0.2,0.43-0.11,0.65-0.15c0.26-0.05,0.7,0.2,0.72-0.26c0.02-0.49-0.44-0.24-0.69-0.29
				c-0.25-0.05-0.58,0.11-0.67-0.3c-0.11,0.18-0.23,0.32-0.48,0.29c-0.27-0.03-0.37,0.13-0.37,0.36c0,0.31,0.25,0.18,0.4,0.2
				C89,94.27,89.15,94.3,89.28,94.4z"/>
			<path class="st12" d="M89.28,93.3c0.31-0.29,0.7-0.1,1.04-0.15c0.17-0.02,0.32-0.03,0.34-0.25c0.02-0.25-0.14-0.29-0.34-0.32
				c-0.33-0.04-0.68,0.13-0.98-0.12c0.04-0.11,0.04-0.22-0.06-0.3c-0.12,0.14-0.09,0.42-0.38,0.42c-0.2,0-0.44-0.01-0.43,0.29
				c0.01,0.36,0.31,0.23,0.51,0.29C89.08,93.18,89.18,93.25,89.28,93.3z"/>
			<path class="st11" d="M89.28,95.51c0.32-0.27,0.7-0.1,1.05-0.14c0.17-0.02,0.32-0.04,0.34-0.25c0.02-0.25-0.14-0.29-0.34-0.31
				c-0.35-0.04-0.73,0.14-1.04-0.15c-0.19,0.3-0.79-0.08-0.8,0.43C88.48,95.6,89.08,95.22,89.28,95.51z"/>
			<path class="st13" d="M89.16,97.27c0.17-0.25,0.16-0.41-0.19-0.42c-0.26-0.01-0.53,0.08-0.77-0.1c0,0,0.01-0.02,0.01-0.02
				c-0.32-0.24-0.65-0.24-0.97,0c-0.24,0.05-0.28,0.21-0.22,0.42c0.05,0.18,0.22,0.14,0.34,0.14c0.25,0.01,0.51-0.03,0.73,0.14
				c0.13,0.04,0.27,0.02,0.4,0.04C88.72,97.45,88.98,97.49,89.16,97.27z"/>
			<path class="st14" d="M124.39,111.09c0.02-0.26-0.05-0.54-0.33-0.57c-0.26-0.03-0.31,0.25-0.38,0.47
				c-0.04,0.13-0.1,0.24-0.15,0.37c-0.02,0.14-0.13,0.29,0.02,0.42c0.05,0.15,0.1,0.3,0.15,0.44c0.06,0.17,0.12,0.39,0.32,0.39
				c0.24,0,0.33-0.2,0.33-0.42C124.28,111.82,124.19,111.45,124.39,111.09z"/>
			<path class="st15" d="M122.01,111.35c-0.86-0.01-1.72-0.02-2.58-0.02c-0.05,0.15-0.1,0.3-0.15,0.45c0.92,0,1.83,0,2.75,0
				C122.16,111.63,122.39,111.48,122.01,111.35z"/>
			<path class="st13" d="M99.69,96.84c-0.61,0-1.22,0.02-1.83,0.01c-0.31-0.01-0.48,0.09-0.42,0.43c0.24,0.27,0.6,0.13,0.88,0.26
				c0.03,0.01,0.06,0.01,0.09,0.02c0.27-0.23,0.58-0.32,0.93-0.28C99.71,97.32,99.78,97.14,99.69,96.84z"/>
			<path class="st16" d="M122.01,111.35c0.19,0.13-0.02,0.29,0.02,0.43c0.12,0.25,0.11,0.65,0.5,0.64c0.25-0.01,0.37-0.24,0.33-0.5
				c-0.27-0.27-0.1-0.55-0.02-0.82c0.04-0.22-0.11-0.34-0.26-0.45C122.12,110.66,122.18,111.1,122.01,111.35z"/>
			<path class="st17" d="M93.71,91.35c0.1,0,0.19,0,0.29,0c0.15-1.01,0.03-2.02,0.07-3.03c0-0.08,0.01-0.17,0.04-0.25
				c0-0.08-0.02-0.17-0.03-0.25c-0.01-0.7,0.01-1.4-0.01-2.1c-0.09-0.15-0.18-0.29-0.39-0.15c0.09,0.21,0.22,0.42,0.07,0.66
				c0.09,0.51,0.1,1.01-0.01,1.51c-0.03,0.03-0.04,0.06-0.02,0.09c-0.04,0.05-0.06,0.11-0.07,0.17c0.01,0.06,0.03,0.12,0.07,0.17
				l-0.01-0.01c0.17,1.01,0.1,2.02,0.03,3.03C93.73,91.26,93.72,91.3,93.71,91.35z"/>
			<path class="st18" d="M93.53,83.33c-0.3,0.37-0.09,0.61,0.19,0.84c0.19,0.3-0.05,0.67,0.2,1.02c0.32-0.36-0.03-0.83,0.26-1.14
				c0.34-0.29,0.37-0.57-0.04-0.83C93.93,83.24,93.72,83.23,93.53,83.33z"/>
			<path class="st19" d="M94,88.18c0,1.06,0,2.12,0,3.17c0.01,0.04,0.01,0.11,0.04,0.13c0.37,0.25,1.6,0.2,1.89-0.07
				c-1.79,0.16-1.79,0.16-1.79-1.58c0-0.55,0.01-1.1,0.01-1.65C94.09,88.13,94.05,88.13,94,88.18z"/>
			<path class="st20" d="M87.23,96.73c0.32,0,0.65,0,0.97,0c-0.1-0.27,0.19-0.67-0.24-0.82c-0.22-0.08-0.44,0.03-0.58,0.24
				C87.27,96.33,87.23,96.52,87.23,96.73z"/>
			<path class="st21" d="M103.67,92.18c0.26-0.07,0.71,0.2,0.74-0.18c0.02-0.25-0.46-0.13-0.71-0.13c-0.5,0.01-1.02-0.1-1.62,0.11
				c0.32,0.31,0.63,0.17,0.89,0.2C103.17,92.45,103.48,92.45,103.67,92.18z"/>
			<path class="st22" d="M125.21,111.8c0.15,0.21,0.34,0.38,0.56,0.5c0.2-0.49,0.33-0.98,0-1.47c-0.24,0.13-0.43,0.3-0.59,0.52
				C125.17,111.5,125.07,111.65,125.21,111.8z"/>
			<path class="st23" d="M97.47,99.47c-0.01,0.05-0.01,0.11-0.02,0.16c0.03,0.03,0.06,0.06,0.09,0.09c0.63,0.2,1.28,0.09,1.92,0.1
				c0.94,0.01,1.89,0.04,2.83-0.02c0.08-0.02,0.16-0.05,0.23-0.09c0.03-0.03,0.05-0.07,0.08-0.1c-0.01-0.04-0.01-0.08-0.02-0.12
				C100.87,99.48,99.17,99.47,97.47,99.47z"/>
			<path class="st24" d="M102.81,93.12c0.34,0.21,0.68,0.21,1.03,0c0.34-0.14,0.72,0.05,1.06-0.11c-0.37-0.29-0.81-0.02-1.19-0.15
				c-0.25-0.17-0.5-0.18-0.74,0c-0.44,0.12-0.92-0.12-1.34,0.15C102,93.18,102.42,92.98,102.81,93.12z"/>
			<path class="st25" d="M125.21,111.8c-0.03-0.15,0.17-0.31-0.02-0.45c-0.27-0.06-0.63,0.15-0.8-0.26c-0.62,0.35-0.3,0.73-0.02,1.1
				C124.45,111.63,124.87,111.81,125.21,111.8z"/>
			<path class="st26" d="M90.94,91.33c0.05-0.13,0.13-0.25,0.16-0.38c0.05-0.23-0.1-0.51,0.17-0.68c0.25-0.2,0.26-0.42,0.03-0.64
				c-0.13-0.12-0.3-0.13-0.44-0.02c-0.23,0.17-0.24,0.39-0.07,0.59C91.07,90.55,90.87,90.96,90.94,91.33z"/>
			<path class="st10" d="M102.66,94.76c-0.18,1.29-0.03,2.6-0.08,3.89c-0.01,0.27,0,0.55-0.01,0.82c0,0,0.02-0.02,0.02-0.02
				c0.1,0.03,0.17-0.01,0.21-0.1c0.11-1.51,0.22-3.02-0.07-4.52C102.71,94.82,102.69,94.79,102.66,94.76z"/>
			<path class="st27" d="M89.28,92.16c0.02,0.1,0.04,0.2,0.06,0.3c0.36,0,0.71,0,1.07,0c0-0.04,0-0.07,0-0.11
				c-0.22-0.01-0.44-0.02-0.66-0.03c-0.24-0.01-0.3-0.15-0.3-0.36c0-0.23,0.11-0.37,0.33-0.28c0.28,0.11,0.61-0.28,0.86,0.12
				c0.05,0.08,0.11,0.04,0.17-0.34c-0.27-0.01-0.55,0-0.82-0.04C89.4,91.33,89.16,91.57,89.28,92.16z"/>
			<path class="st28" d="M122.84,111.1c-0.16,0.16-0.31,0.31-0.47,0.47c0.1,0.23,0.32,0.25,0.49,0.35c0.19-0.23,0.46-0.08,0.69-0.14
				c-0.04-0.14,0.16-0.29-0.02-0.42C123.28,111.34,123,111.39,122.84,111.1z"/>
			<path class="st29" d="M93.67,85.58c0.11,0.03,0.21,0.07,0.32,0.1c0.08,0.01,0.11-0.09,0.19-0.09l-0.02-0.01
				c0.04-0.06,0.05-0.13,0.02-0.2c-0.13-0.12-0.26-0.25-0.46-0.11l0-0.01c-0.37,0.1-0.73,0.18-1.08-0.04
				c-0.02-0.21,0.18-0.56-0.3-0.51c0.06,0.38-0.25,0.58-0.41,0.85C92.51,85.57,93.09,85.57,93.67,85.58z"/>
			<path class="st30" d="M96.22,89.97c0.27-0.18,0.37-0.4,0.12-0.66c-0.16-0.17-0.37-0.18-0.54,0c-0.24,0.26-0.16,0.48,0.12,0.66
				C96.03,90.05,96.12,90.05,96.22,89.97z"/>
			<path class="st31" d="M95.68,88.05c-0.07-0.24-0.42-0.34-0.34-0.67c0.02-0.09-0.1-0.2-0.24-0.18c-0.13,0.01-0.2,0.1-0.22,0.22
				c-0.03,0.15-0.06,0.31-0.08,0.47c0.07,0.15,0.22,0.17,0.36,0.22C95.33,88.09,95.51,88.14,95.68,88.05z"/>
			<path class="st32" d="M93.74,91.21c0.18-1.01,0.24-2.02-0.03-3.03C93.72,89.19,93.73,90.2,93.74,91.21z"/>
			<path class="st33" d="M102.95,92.86c0.25,0,0.5,0,0.74,0c-0.01-0.22-0.02-0.45-0.02-0.67c-0.23,0.2-0.47,0.19-0.7,0
				C102.97,92.4,102.96,92.63,102.95,92.86z"/>
			<path class="st34" d="M96.22,89.97c-0.1,0-0.19,0-0.29,0c0,0.46,0.01,0.92,0.01,1.38c0.08,0.05,0.17,0.09,0.25,0.14
				c0.01-0.05,0.03-0.1,0.04-0.14C96.23,90.88,96.22,90.43,96.22,89.97z"/>
			<path class="st35" d="M94.15,85.43c0,0.05,0,0.1,0,0.15c0.59-0.08,1.21,0.21,1.77-0.16c-0.43-0.04-0.26-0.44-0.41-0.65
				c-0.08,0-0.17-0.01-0.25-0.01c0.06,0.8-0.53,0.56-0.95,0.6C94.24,85.35,94.19,85.38,94.15,85.43z"/>
			<path class="st32" d="M94.15,85.43c0.04,0,0.08,0,0.12-0.01c0-0.03,0-0.06,0-0.09c-0.32-0.41-0.15-0.85-0.1-1.29
				c-0.38,0.24-0.06,0.63-0.24,0.93c-0.19-0.24,0.08-0.6-0.21-0.81c0,0.37,0,0.73-0.01,1.1C93.86,85.33,94.01,85.38,94.15,85.43z"/>
			<path class="st36" d="M125.77,110.83c0.19,0.49,0.06,0.98,0,1.47c0.09,0.06,0.24,0.29,0.26,0.05c0.06-0.51,0.06-1.05,0-1.56
				C126.01,110.55,125.85,110.76,125.77,110.83z"/>
			<path class="st37" d="M91.38,91.47c0.02,0.06,0.04,0.18,0.07,0.18c0.7,0,1.39-0.02,2.09-0.03c0.01,0,0.04-0.03,0.04-0.04
				c0-0.04-0.02-0.08-0.03-0.12C92.83,91.46,92.1,91.47,91.38,91.47z"/>
			<path class="st38" d="M92.91,87.84c0-0.09,0-0.18,0-0.27c0-0.16,0-0.35-0.21-0.37c-0.22-0.02-0.25,0.15-0.25,0.32
				c0,0.14-0.01,0.27-0.13,0.37c0.17,0.17,0.36,0.26,0.61,0.15C92.97,87.97,92.97,87.9,92.91,87.84z"/>
			<path class="st32" d="M94.18,85.59c-0.06,0.03-0.13,0.06-0.19,0.09c0.01,0.74,0.01,1.49,0.02,2.24c0.07,0.03,0.12,0.02,0.17-0.04
				C94.07,87.11,94.06,86.35,94.18,85.59z"/>
			<path class="st39" d="M88.35,97.29c-0.09,0.04-0.18,0.09-0.27,0.13c0.36,0.33,0.72,0.66,1.08,0.99c0.18-0.09,0.03-0.2,0.02-0.3
				C89.02,97.7,88.68,97.5,88.35,97.29z"/>
			<path class="st32" d="M92.91,88.02c-0.2-0.04-0.39-0.08-0.59-0.13c-0.09-0.02-0.2-0.06-0.22,0.06c-0.05,0.21,0.12,0.2,0.25,0.2
				c0.45,0.02,0.91,0.03,1.36,0.04c0-0.05,0-0.11,0.01-0.16C93.45,87.93,93.18,87.95,92.91,88.02z"/>
			<path class="st40" d="M94.27,85.33c0,0.03,0,0.06,0,0.09c0.16,0,0.32-0.01,0.48,0c0.56,0.06,0.7-0.18,0.5-0.68
				C95.15,85.32,94.72,85.34,94.27,85.33z"/>
			<path class="st41" d="M10.04,99.91c-0.23,0.11-0.06,0.44-0.29,0.55c-0.28,0.05-0.58-0.08-0.83,0.12c0.42,0,0.84,0,1.26-0.01
				C10.26,100.32,10.21,100.1,10.04,99.91z"/>
			<path class="st32" d="M95.68,88.05c-0.2-0.01-0.41-0.02-0.61-0.03c-0.36-0.06-0.71-0.09-1.07,0.02c0,0.05,0,0.1,0,0.14
				c0.05,0,0.09,0,0.14,0C94.65,88.07,95.18,88.29,95.68,88.05z"/>
			<path class="st42" d="M134.61,101.99c-0.56-0.23-1.11-0.23-1.67,0C133.49,101.99,134.05,101.99,134.61,101.99z"/>
			<path class="st32" d="M93.73,87.76c0.21-0.5,0.2-1.01,0.01-1.51C93.74,86.75,93.73,87.25,93.73,87.76z"/>
			<path class="st43" d="M97.45,98.11c-0.03,0.11-0.13,0.23,0.04,0.32c0.23-0.18,0.5-0.31,0.6-0.61c-0.01-0.06-0.05-0.11-0.1-0.15
				C97.67,97.64,97.6,97.92,97.45,98.11z"/>
			<path class="st17" d="M91.92,85.56c0.3-0.2,0.62-0.4,0.41-0.85C92.2,85,92.06,85.28,91.92,85.56z"/>
			<path class="st44" d="M102.81,93.12c-0.38-0.22-0.8-0.05-1.19-0.11c0,0.04,0,0.09,0,0.13C102.02,93.13,102.41,93.13,102.81,93.12
				z"/>
			<path class="st45" d="M104.89,93.01c-0.35,0.06-0.72-0.11-1.06,0.11c0.35,0.01,0.7,0.01,1.05,0.02
				C104.89,93.09,104.89,93.05,104.89,93.01z"/>
			<path class="st46" d="M94,88.04c0.36-0.01,0.71-0.01,1.07-0.02c-0.09-0.05-0.18-0.09-0.27-0.14c-0.21,0-0.42,0-0.63,0
				c-0.06,0.01-0.11,0.03-0.17,0.04C94,87.95,94,88,94,88.04z"/>
			<path class="st32" d="M92.64,85.23c0.35,0.32,0.71,0.25,1.08,0.04C93.36,85.3,92.99,85.36,92.64,85.23z"/>
			<path class="st40" d="M95.51,84.76c0.01,0.3-0.14,0.7,0.41,0.65C95.59,85.32,95.7,84.95,95.51,84.76z"/>
			<path class="st41" d="M8.81,99.77c0.26,0,0.53,0,0.79,0c0-0.05,0-0.09,0-0.14c-0.27,0-0.53,0-0.8,0
				C8.81,99.68,8.81,99.72,8.81,99.77z"/>
			<path class="st47" d="M92.91,88.02c0.27,0,0.54,0.01,0.81,0.01c0-0.06-0.01-0.12-0.01-0.17c-0.27,0-0.53-0.01-0.8-0.01
				C92.91,87.9,92.91,87.96,92.91,88.02z"/>
			<path class="st48" d="M93.53,83.33c0.21-0.01,0.43,0.08,0.61-0.11C93.9,83.06,93.7,83.11,93.53,83.33z"/>
			<path class="st49" d="M98.02,97.75c0.03,0.01,0.06,0.04,0.08,0.07c0.16-0.02,0.26-0.12,0.33-0.26c0,0,0,0.01,0,0.01
				c-0.08-0.11-0.17-0.21-0.32-0.13C97.99,97.51,97.9,97.6,98.02,97.75z"/>
			<path class="st50" d="M13.3,112.49c-0.05,0.06-0.09,0.11-0.12,0.16c0.05,0.03,0.1,0.08,0.14,0.07c0.05-0.01,0.08-0.07,0.12-0.11
				C13.39,112.57,13.35,112.54,13.3,112.49z"/>
			<path class="st51" d="M13.94,112.04c32.29,0,64.57,0,96.86,0c0-0.02,0-0.05,0-0.07c-32.29,0-64.59,0-96.88,0
				C13.93,111.99,13.94,112.01,13.94,112.04z"/>
			<path class="st8" d="M39.45,107.64c-0.23,0.24-0.52,0.13-0.78,0.13c-3.15,0.01-6.29,0-9.44,0c0.23,0.24,0.52,0.13,0.79,0.13
				c13.16,0.01,26.32,0,39.48,0c17,0,34,0,51,0c3.58,0,7.16,0,10.74-0.01c0.26,0,0.63,0.19,0.74-0.27
				c-0.06-0.03-0.12-0.07-0.19-0.07c-1.59,0.07-3.16-0.14-4.75-0.14c-25.08,0.01-50.17,0.01-75.25,0.01c-0.46,0-0.92-0.02-1.38,0.02
				c-0.43,0.11-0.87,0.19-1.31,0.03c-0.36-0.06-0.72-0.06-1.08,0c-0.39,0.14-0.8,0.07-1.2,0.08c-2.02,0-4.04,0-6.05,0
				c-0.27,0-0.55,0.02-0.82-0.06C39.76,107.49,39.59,107.5,39.45,107.64z"/>
			<path class="st52" d="M50.22,107.64c27.25,0,54.5,0,81.76,0c0.19-0.02,0.39,0.06,0.55-0.12c-0.96-0.01-1.93-0.03-2.89-0.04
				c-0.11-0.08-0.23-0.14-0.37-0.16c-2.44-0.08-4.88-0.04-7.32-0.02c-0.14,0-0.27,0-0.41,0c-0.25-0.04-0.51-0.02-0.76-0.02
				c-16.08,0-32.16,0-48.25,0c-0.41,0-0.83-0.01-1.24,0.03c-0.09,0-0.18,0-0.27,0c-0.46-0.05-0.92-0.02-1.38-0.02
				c-7.78,0-15.56-0.01-23.34,0c-0.18,0.03-0.36,0.02-0.54,0.02c-1.81-0.03-3.62-0.03-5.43,0c-0.13,0-0.27,0-0.4,0
				c-3.73-0.03-7.45-0.04-11.18,0c-0.18,0.01-0.36,0.01-0.53-0.01c-1.76-0.01-3.52-0.01-5.28,0c-0.13,0.02-0.26,0.02-0.39,0.02
				c-1.89-0.01-3.78-0.06-5.67,0.02c-0.14,0.02-0.25,0.08-0.36,0.16c-0.88,0.11-1.77-0.14-2.64,0.15c3.28,0,6.55,0.01,9.83,0.01
				c0.32,0.1,0.64,0.1,0.97,0c4.93,0,9.85,0,14.78,0c0.14,0,0.28,0,0.42,0c0.75,0.15,1.5,0.05,2.25,0.06
				c1.58,0.02,3.15,0.01,4.73,0.01c0.39-0.03,0.79,0.07,1.17-0.07c0.37,0,0.74,0,1.11,0C49.48,107.75,49.85,107.75,50.22,107.64z"/>
			<path class="st53" d="M94.53,96.66c-0.1-0.01-0.21-0.02-0.32-0.03c-0.11-0.01-0.25-0.01-0.25-0.16c0-0.15,0.13-0.17,0.24-0.17
				c0.27-0.01,0.55-0.01,0.82,0c0.19,0,0.37,0.16,0.24,0.29c-0.36,0.35-0.2,0.58,0.02,0.93c0.16,0.25,0.05,0.58-0.27,0.75
				c-0.37,0.2-0.71,0.12-1.03-0.12c-0.08-0.06-0.1-0.15-0.04-0.24c0.09-0.14,0.21-0.14,0.35-0.06c0.18,0.11,0.42,0.22,0.53-0.04
				c0.12-0.28-0.15-0.29-0.33-0.37C93.93,97.15,94.59,96.98,94.53,96.66z"/>
			<path class="st54" d="M92.23,98.28c0.28-0.54,0.54-1.04,0.8-1.52c-0.05-0.05-0.08-0.09-0.12-0.1c-0.24-0.09-0.72,0.11-0.71-0.17
				c0.02-0.38,0.48-0.18,0.73-0.19c0.81-0.03,0.83,0.03,0.46,0.73c-0.17,0.32-0.36,0.63-0.52,0.96
				C92.76,98.26,92.57,98.33,92.23,98.28z"/>
			<path class="st55" d="M91.07,96.04c-0.15,0-0.3,0-0.46,0c-0.15,0-0.3,0-0.46,0c0,0.03,0,0.06,0,0.09c0.3,0,0.61,0,0.91,0
				C91.07,96.1,91.07,96.07,91.07,96.04z"/>
			<path class="st56" d="M16.52,107.48c0.1,0,0.19,0,0.29-0.01c0.16-0.16,0.2-0.36,0.2-0.57c0.01-2.08,0.04-4.17-0.02-6.25
				c-0.14-0.18-0.29-0.17-0.46-0.04C16.52,102.9,16.52,105.19,16.52,107.48z"/>
			<path class="st41" d="M11.69,100.46c-0.46,0.06-0.94-0.1-1.39,0.12c0.6,0,1.21,0,1.81,0c-0.12-0.16-0.16-0.34-0.15-0.53
				C11.87,100.18,11.78,100.32,11.69,100.46z"/>
			<path class="st41" d="M15.57,100.46c-0.05,0.04-0.1,0.08-0.16,0.12c0.19,0,0.38,0,0.57,0c-0.21-0.18-0.01-0.46-0.14-0.66
				C15.53,99.99,15.82,100.36,15.57,100.46z"/>
			<path class="st57" d="M15.85,101.31c0,0.1,0.01,0.19,0.13,0.2c0.13,0.01,0.21-0.08,0.23-0.2c0.02-0.1-0.04-0.19-0.14-0.2
				C15.92,101.08,15.88,101.2,15.85,101.31z"/>
			<path class="st41" d="M14.18,100.58c-0.26-0.15-0.31-0.39-0.28-0.66c-0.34,0.16-0.05,0.45-0.15,0.66
				C13.9,100.57,14.04,100.58,14.18,100.58z"/>
			<path class="st3" d="M71.23,107.47c0.21,0.01,0.41,0.03,0.62,0.03c16.38,0,32.76,0,49.15,0c0.21,0,0.41-0.02,0.62-0.02
				c0.19-0.17,0.2-0.4,0.2-0.63c0.01-1.89,0.01-3.79,0-5.68c0-0.18-0.01-0.37-0.11-0.53c-0.23-0.24-0.48-0.24-0.75-0.07
				c-0.24,0-0.47,0.01-0.71,0.01c-0.36-0.24-0.73-0.24-1.09,0c-0.28,0-0.56,0-0.84,0c-0.28-0.21-0.55-0.21-0.83-0.01l0.01,0.06
				c-0.26,0.26-0.22,0.59-0.22,0.91c-0.01,1.15-0.02,2.3,0,3.45c0.01,0.55-0.18,0.79-0.76,0.78c-2.99-0.01-5.98-0.01-8.97,0
				c-0.58,0-0.76-0.24-0.76-0.79c0.02-1.15,0.01-2.3,0-3.45c0-0.32,0.04-0.65-0.22-0.91l0.01-0.06c-0.37-0.23-0.74-0.23-1.11,0.01
				c-0.19,0-0.38,0-0.57,0c-0.22-0.2-0.51-0.14-0.76-0.19c-0.29-0.03-0.56,0.09-0.85,0.11c-0.06-0.01-0.12-0.02-0.18-0.03
				c-0.27-0.1-0.21-0.46-0.45-0.59c-0.07,0-0.12,0.02-0.17,0.07c-0.14,0.51-0.54,0.51-0.96,0.48c-0.14,0-0.29,0-0.43,0
				c-0.5,0-1.01,0-1.51,0c-0.11,0-0.23,0-0.34,0c-0.27,0-0.54,0.01-0.81,0.01c-0.41-0.01-0.88,0.11-1.02-0.49
				c-0.02-0.1-0.19-0.08-0.3-0.01c-0.17,0.36-0.45,0.54-0.86,0.51c-0.23-0.02-0.45,0.02-0.64,0.18c-0.45-0.05-0.12-0.54-0.38-0.69
				c-0.31,0.73-1,0.42-1.53,0.55c-0.13,0.07-0.26,0.13-0.28-0.1c-0.01-0.15,0.04-0.33-0.13-0.44c-0.31,0.74-1,0.41-1.53,0.54
				c-0.13,0.11-0.26,0.11-0.38-0.01c-0.52-0.06-1.04-0.06-1.56,0c-0.13,0.13-0.25,0.12-0.38,0.01c-0.08,0.02-0.1,0.1-0.16,0.15
				c-0.05-0.01-0.1-0.02-0.15-0.03c-0.37-0.26-0.79-0.14-1.2-0.17c-0.16,0.01-0.33,0.01-0.49,0.01c-0.53,0.03-1.09-0.14-1.59,0.17
				c-0.1,0-0.2,0-0.3,0c-0.09-0.02-0.17-0.01-0.24,0.05c-0.25,0.26-0.23,0.59-0.23,0.91c0,1.15-0.03,2.29,0.02,3.44
				c0.03,0.66-0.06,0.78-0.73,0.78c-2.96,0.02-5.92,0-8.88,0.01c-0.56,0-0.77-0.21-0.77-0.77c0.01-1.35,0.04-2.71-0.02-4.06
				c-0.01-0.08-0.04-0.16-0.07-0.24c-0.02-0.04-0.05-0.07-0.07-0.11c-0.06-0.05-0.14-0.09-0.22-0.09c-0.25,0.09-0.47-0.04-0.71-0.09
				c-0.44-0.01-0.88-0.08-1.31,0.09c-0.25,0.09-0.48-0.1-0.72-0.07c-0.13,0.01-0.24,0.06-0.34,0.14c-0.24,0.27-0.19,0.63-0.17,0.92
				c0.11,1.88,0.01,3.76,0.05,5.64C71.16,107.26,71.17,107.37,71.23,107.47z"/>
			<path class="st3" d="M46.22,107.48c5.55,0.01,11.09,0.02,16.64,0.02c2.74,0,5.48-0.01,8.21-0.02c0.07-0.09,0.13-0.19,0.13-0.31
				c0.02-2.17,0.07-4.33-0.05-6.49c-0.18-0.28-0.43-0.25-0.7-0.18c-0.18,0.07-0.33-0.06-0.49-0.08c-0.46-0.01-0.93-0.07-1.38,0.05
				c-0.23,0.12-0.53-0.11-0.73,0.15c-0.2,0.31-0.15,0.66-0.16,1c-0.01,1.15-0.01,2.29,0,3.44c0,0.49-0.17,0.71-0.68,0.71
				c-3.03-0.01-6.06,0-9.09,0c-0.49,0-0.7-0.2-0.7-0.7c0.01-1.12,0.01-2.25,0-3.37c0-0.34,0.04-0.69-0.13-1.01
				c-0.09-0.12-0.2-0.17-0.35-0.11c-0.75,0-1.49,0.01-2.24,0.01c-0.19-0.15-0.38-0.14-0.58-0.01c-0.2,0.3-0.17,0.61-0.08,0.93
				c0.22,0.27,0.16,0.65,0.37,0.93c0.09,0.07,0.2,0.1,0.31,0.13c0.27,0.09,0.68-0.08,0.81,0.25c0.19,0.45,0.11,0.95,0.04,1.43
				c-0.04,0.26-0.27,0.3-0.48,0.3c-1.19-0.01-2.39,0.11-3.57-0.16c-0.98-0.23-1.67-0.86-2.34-1.73c1.4-0.16,2.71,0.03,4-0.12
				c0.41-0.06,0.27-0.59,0.61-0.71c0.07-0.45,0.11-0.89-0.12-1.31c-0.21-0.09-0.42-0.09-0.61,0.05c-0.1,0-0.21,0-0.31,0
				c-0.46-0.29-0.97-0.13-1.46-0.18c-0.2,0.02-0.41,0.02-0.61,0c-0.44-0.01-0.89,0-1.33,0c-0.2,0.02-0.4,0.01-0.6,0
				c-0.45,0-0.89,0-1.34,0c-0.25,0.02-0.5,0.01-0.75,0.02c-0.18,0.02-0.35,0.07-0.46,0.23c-0.13,0.23-0.11,0.49-0.11,0.74
				c0,1.73-0.01,3.47,0,5.2C45.89,106.91,45.83,107.29,46.22,107.48z"/>
			<path class="st3" d="M28.68,107.48c3.77,0,7.54,0,11.31,0c0.16-0.16,0.19-0.36,0.19-0.57c0.01-1.97,0.02-3.94-0.01-5.91
				c0-0.12-0.03-0.23-0.08-0.33c-0.07-0.13-0.18-0.19-0.32-0.22c-0.33-0.06-0.67-0.02-1.01-0.04c-0.36-0.01-0.73,0-1.09,0
				c-0.24-0.01-0.47,0.09-0.71,0.1c-0.47-0.12-0.94-0.12-1.42-0.02c-0.08,0.03-0.14,0.08-0.19,0.15c-0.15,0.3-0.13,0.61-0.03,0.92
				c0.22,0.26,0.15,0.65,0.4,0.89c0.05,0.04,0.11,0.07,0.18,0.1c0.3,0.13,0.76-0.11,0.92,0.3c0.16,0.43,0.09,0.91,0.04,1.36
				c-0.03,0.3-0.27,0.34-0.51,0.34c-0.94,0-1.88,0.06-2.82-0.03c-1.26-0.11-2.23-0.74-2.98-1.74c0.05-0.21,0.21-0.18,0.34-0.18
				c1.28,0.02,2.57-0.09,3.85,0.09c0.33,0.05,0.69,0.12,0.97-0.17c0.01-0.14-0.09-0.2-0.2-0.24c-0.11-0.04-0.22-0.07-0.33-0.08
				c-0.19-0.02-0.3-0.15-0.31-0.31c0-0.11,0.26-0.02,0.27-0.2c0.08-0.43,0.18-0.86-0.23-1.2c-0.4-0.15-0.82-0.09-1.23-0.1
				c-0.32,0.03-0.65,0.02-0.97,0.01c-0.08-0.01-0.16-0.01-0.24,0c-0.44,0.04-0.9-0.07-1.32,0.18c-0.55,0-1.11,0-1.66,0
				c-0.23-0.18-0.48-0.18-0.74-0.11c-0.08,0.03-0.16,0.08-0.22,0.14c-0.22,0.25-0.23,0.55-0.19,0.84c0.25,1.7,0.06,3.41,0.12,5.12
				C28.5,106.89,28.43,107.22,28.68,107.48z"/>
			<path class="st3" d="M17.35,100.58c-0.14,0.01-0.28,0.02-0.42,0.03c-0.12,0.21-0.13,0.43-0.13,0.66c0.01,2.07,0.01,4.13,0.01,6.2
				c1.93,0,3.86,0,5.79,0c0.22-0.22,0.2-0.5,0.2-0.77c0-1.76,0.01-3.52,0-5.28c0-0.3,0.01-0.6-0.23-0.84
				c-0.22-0.19-0.49-0.17-0.75-0.18c-0.25,0-0.5,0.01-0.75-0.01c-0.37,0.02-0.75-0.08-1.08,0.18c-0.09,0-0.19,0-0.28,0
				c-0.13-0.1-0.28-0.15-0.45-0.16c-0.4-0.02-0.8-0.01-1.2-0.01C17.8,100.42,17.58,100.52,17.35,100.58z"/>
			<path class="st3" d="M40.28,107.48c1.84,0,3.67,0,5.51,0c0.08-0.09,0.13-0.19,0.13-0.31c-0.01-2.17,0.08-4.34-0.04-6.51
				c-0.14-0.23-0.36-0.23-0.59-0.21c-0.21,0.12-0.41,0.01-0.62-0.04c-0.46,0.01-0.93-0.13-1.35,0.16c-0.09,0-0.19,0-0.28,0
				c-0.05-0.05-0.09-0.04-0.14,0c-0.6,0-1.2,0-1.79,0c-0.24-0.17-0.49-0.17-0.75-0.08c-0.08,0.04-0.14,0.11-0.18,0.19
				c-0.08,2.14-0.02,4.27-0.03,6.41C40.15,107.24,40.18,107.37,40.28,107.48z"/>
			<path class="st58" d="M56.99,100.61c0,1.59,0.01,3.17-0.01,4.76c-0.01,0.48,0.14,0.63,0.63,0.63c3.22-0.02,6.44-0.02,9.66,0
				c0.54,0,0.65-0.19,0.65-0.68c-0.03-1.56-0.01-3.13-0.02-4.69c-0.16-0.21-0.39-0.21-0.62-0.21c-1.41-0.01-2.83-0.01-4.24,0
				c-0.24,0-0.45,0.08-0.65,0.18c-0.69,0-1.38,0-2.07,0c-0.41-0.29-0.87-0.15-1.31-0.16c-0.13,0.01-0.24,0.06-0.34,0.14
				c-0.1,0.01-0.19,0.01-0.29,0.02c-0.42-0.25-0.85-0.21-1.29-0.07C57.05,100.55,57.02,100.58,56.99,100.61z"/>
			<path class="st59" d="M76.19,100.46c-0.1,0-0.19,0-0.29,0c-0.48-0.23-0.95-0.41-1.36,0.11l-0.01,0.06
				c0.15,0.12,0.33,0.16,0.51,0.16c2.71-0.01,5.41,0.06,8.11-0.04c0.36-0.17,0.26-0.31-0.03-0.42c-0.26-0.1-0.58,0.01-0.86-0.2
				c0.85-0.33,1.06-0.24,1.24,0.52c0.19,0.14,0.41,0.13,0.63,0.15c0.08,0.01,0.15,0.01,0.23,0c0.26-0.02,0.53,0.02,0.78-0.07
				c0.06-0.03,0.12-0.07,0.17-0.12c-0.17-0.55-0.74-0.16-1.08-0.48c0.41-0.32,0.96-0.02,1.33-0.34c-0.05-0.04-0.11-0.12-0.16-0.12
				c-1.74-0.01-3.47,0-5.21,0c-0.01,0-0.03,0.03-0.03,0.05c0,0.02,0.01,0.04,0.02,0.06c0.33,0.33,0.81,0.06,1.22,0.33
				c-0.43,0.32-0.99,0-1.35,0.35c-0.1,0-0.19,0-0.29,0c-0.5-0.36-1.17-0.04-1.66-0.41c-0.09,0-0.17,0-0.26,0
				C77.35,100.42,76.69,100.1,76.19,100.46z"/>
			<path class="st59" d="M62.38,100.58c1.84,0.01,3.67,0.03,5.51,0.04c0.24-0.02,0.47-0.03,0.71-0.05c0-0.1-0.03-0.18-0.16-0.11
				c-0.09-0.14-0.18-0.28-0.27-0.42c-0.46,0.33-0.96,0.23-1.57,0.21c0.4-0.51,0.98-0.13,1.3-0.48c-0.09-0.12-0.23-0.14-0.37-0.14
				c-1.51,0-3.01,0-4.52,0c-0.14,0-0.27,0.02-0.36,0.14c0.33,0.32,0.81,0.06,1.22,0.33c-0.43,0.32-0.99,0-1.36,0.35
				C62.47,100.5,62.42,100.54,62.38,100.58z"/>
			<path class="st60" d="M95.63,100.59c0.27,0,0.55-0.02,0.82,0.01c0.56,0.07,0.82-0.13,0.73-0.71c-0.43-0.27-0.89-0.23-1.36-0.11
				C95.57,100.01,95.68,100.32,95.63,100.59z"/>
			<path class="st61" d="M93.71,100.45c0.41,0.29,0.87,0.16,1.29,0.12c0.39-0.04,0.18-0.43,0.24-0.67c-0.35-0.04-0.71,0-1.04-0.04
				C93.63,99.79,93.7,100.11,93.71,100.45z"/>
			<path class="st58" d="M91.78,100.45c0.39,0.28,0.84,0.15,1.26,0.12c0.42-0.03,0.21-0.43,0.27-0.66c-0.34-0.01-0.68,0-1.02-0.03
				C91.83,99.84,91.73,100.06,91.78,100.45z"/>
			<path class="st62" d="M89.84,100.44c0.52,0.25,1.04,0.25,1.56,0c0.1-0.68-0.39-0.56-0.78-0.56
				C90.23,99.89,89.74,99.76,89.84,100.44z"/>
			<path class="st23" d="M95.82,99.78c0.45,0.04,0.91,0.07,1.36,0.11c0.38,1.18,1.33,0.58,2.06,0.68c0.03-0.07,0.02-0.13-0.03-0.18
				c-0.37-0.22-0.8-0.04-1.22-0.19c0.41-0.27,0.98,0.11,1.28-0.37c-0.34-0.27-0.73-0.07-1.1-0.13c-0.24-0.04-0.49,0.07-0.73-0.07
				l0,0c-0.59,0-1.17,0-1.76,0.01c-0.01,0-0.03,0.05-0.02,0.05C95.72,99.73,95.77,99.76,95.82,99.78z"/>
			<path class="st63" d="M35.44,100.6c-0.22-0.19-0.09-0.45-0.14-0.68c0.09-0.08,0.19-0.15,0.3-0.24c-0.22-0.07-0.42-0.1-0.58,0.11
				c0.01,0.28,0.05,0.56-0.13,0.8c0.25,0.4,0.09,0.84,0.13,1.27c0.03,0.22,0.19,0.25,0.34,0.18c0.21-0.09,0.2-0.27,0.09-0.45
				C35.45,101.25,35.45,100.92,35.44,100.6z"/>
			<path class="st41" d="M18.05,100.58c-0.29-0.14-0.12-0.47-0.27-0.66c-0.56-0.52-1.18-0.31-1.8-0.14
				c0.36,0.02,0.73,0.02,1.09,0.05c0.54,0.05,0.63,0.29,0.29,0.75C17.58,100.58,17.81,100.58,18.05,100.58z"/>
			<path class="st64" d="M39.73,100.58c-0.48-0.1-0.6-0.37-0.41-0.81c-0.42-0.07-0.84-0.32-1.25,0c0.93,0,0.97,0.06,0.69,0.8
				C39.08,100.58,39.4,100.58,39.73,100.58z"/>
			<path class="st41" d="M20.67,99.77c0.13,0,0.27,0,0.4,0.01c0.19,0.01,0.34,0.08,0.4,0.28c0.11,0.36-0.22,0.38-0.39,0.51
				c0.23,0,0.47,0,0.7,0c0.04-0.04,0.07-0.09,0.1-0.14c0.05-0.13,0.04-0.28,0.12-0.4c0.08-0.12,0.25-0.14,0.33-0.27
				C21.77,99.6,21.22,99.55,20.67,99.77z"/>
			<path class="st59" d="M58.79,99.77c0.5,0,1,0,1.5,0c0.59,0,1.18,0,1.78,0c0-0.05,0-0.09,0-0.14c-1.12,0-2.24,0-3.37,0
				c-0.01,0-0.03,0.03-0.04,0.04C58.7,99.71,58.75,99.74,58.79,99.77z"/>
			<path class="st64" d="M45.81,99.78c0.11,0.03,0.23,0.1,0.33,0.08c0.23-0.05,0.46-0.14,0.59,0.15c0.12,0.26-0.04,0.43-0.24,0.58
				c0.23,0,0.47,0,0.7,0c-0.13-0.16-0.16-0.34-0.16-0.54c-0.26-0.61-0.77-0.39-1.22-0.38c-0.01,0-0.03,0.03-0.03,0.05
				C45.78,99.74,45.8,99.76,45.81,99.78z"/>
			<path class="st41" d="M17.91,99.78c0.36,0,0.72-0.01,1.08,0c0.19,0,0.43-0.06,0.5,0.23c0.06,0.23,0.03,0.44-0.21,0.58
				c0.14,0,0.28,0,0.42-0.01C19.7,99.57,19.1,99.3,17.91,99.78z"/>
			<path class="st59" d="M87.93,100.58c-0.3-0.43-0.07-0.7,0.27-0.94c-0.24,0.01-0.49,0.02-0.7,0.15c0,0.26-0.01,0.52-0.01,0.79
				C87.64,100.57,87.78,100.57,87.93,100.58z"/>
			<path class="st64" d="M47.19,99.78c0.49,0.16,1.02-0.08,1.51,0.14c0.13-0.2-0.05-0.25-0.16-0.26c-0.45-0.01-0.9,0-1.34,0.01
				c-0.01,0-0.03,0.03-0.03,0.05C47.16,99.73,47.18,99.75,47.19,99.78z"/>
			<path class="st41" d="M11.97,99.91c0.49-0.21,1.01-0.03,1.51-0.14c-0.45-0.28-0.95-0.12-1.42-0.1
				C11.95,99.68,11.86,99.78,11.97,99.91z"/>
			<path class="st63" d="M32.55,100.58c-0.22-0.18-0.48-0.11-0.73-0.1c-0.31,0-0.4-0.16-0.39-0.43c-0.42,0.02-0.09,0.4-0.27,0.54
				C31.63,100.58,32.09,100.58,32.55,100.58z"/>
			<path class="st63" d="M31.01,99.76c-0.52-0.16-1.04-0.14-1.55,0C29.98,99.76,30.49,99.76,31.01,99.76z"/>
			<path class="st59" d="M56.71,99.91c0.54-0.27,1.11-0.07,1.66-0.12c-0.52-0.31-1.08-0.12-1.63-0.12
				C56.59,99.66,56.62,99.81,56.71,99.91z"/>
			<path class="st59" d="M76.33,99.77c0.46,0,0.91,0,1.37,0c-0.48-0.29-1-0.11-1.5-0.1c0,0.02,0,0.04,0.01,0.05
				C76.24,99.75,76.29,99.76,76.33,99.77z"/>
			<path class="st63" d="M33.11,100.05c0.06,0.35-0.22,0.41-0.44,0.53c0.33,0,0.65,0,0.98,0c-0.19-0.13-0.32-0.28-0.28-0.53
				C33.28,100.05,33.2,100.05,33.11,100.05z"/>
			<path class="st59" d="M78.13,99.78c0.55,0,1.1,0,1.64,0c-0.53-0.31-1.1-0.11-1.65-0.12c-0.01,0-0.02,0.03-0.02,0.05
				C78.1,99.74,78.12,99.76,78.13,99.78z"/>
			<path class="st63" d="M23.71,99.78c0.5,0,1.01,0,1.51,0C24.71,99.52,24.21,99.55,23.71,99.78z"/>
			<path class="st64" d="M51.06,99.78c0.04,0,0.08,0,0.12,0c0.41,0,0.81,0,1.22,0c0-0.04,0-0.07,0-0.11c-0.45,0-0.9,0-1.34,0
				c-0.01,0-0.03,0.03-0.03,0.05C51.03,99.74,51.05,99.76,51.06,99.78z"/>
			<path class="st59" d="M53.26,99.78c0.37,0.02,0.73,0.14,1.1,0C53.99,99.54,53.62,99.57,53.26,99.78z"/>
			<path class="st41" d="M10.18,99.78c0.04,0,0.08,0,0.12-0.01c0.42,0.1,0.84,0.1,1.26,0c0.04,0,0.08,0.01,0.12,0.01
				c-0.48-0.3-1-0.13-1.51-0.12c-0.01,0-0.02,0.04-0.02,0.05C10.16,99.74,10.17,99.76,10.18,99.78z"/>
			<path class="st63" d="M27.03,99.77c0.04,0,0.08,0,0.12,0c-0.42-0.36-0.9-0.01-1.35,0C26.21,99.77,26.62,99.77,27.03,99.77z"/>
			<path class="st64" d="M40.96,99.92c0,0.37-0.25,0.53-0.55,0.65c0.23,0,0.46,0,0.7,0C41.02,100.36,41.27,100.08,40.96,99.92z"/>
			<path class="st64" d="M50.37,99.77c0.04,0,0.08,0,0.12,0c-0.5-0.25-1.01-0.23-1.51,0.01c0.04,0,0.08-0.01,0.13-0.01
				C49.53,99.87,49.95,99.88,50.37,99.77z"/>
			<path class="st63" d="M29.24,100.05c0.07,0.35-0.22,0.41-0.43,0.53c0.23,0,0.46,0,0.7,0C29.48,100.37,29.59,100.09,29.24,100.05z
				"/>
			<path class="st63" d="M27.3,100.05c0.04,0.25-0.1,0.41-0.29,0.53c0.24,0.23,0.48,0.23,0.72,0c-0.13-0.15-0.16-0.34-0.16-0.53
				C27.47,100.05,27.38,100.05,27.3,100.05z"/>
			<path class="st63" d="M25.79,100.58c-0.14-0.15-0.16-0.34-0.17-0.53c-0.09,0-0.17,0-0.26,0c0.04,0.25-0.1,0.41-0.29,0.53
				C25.31,100.8,25.55,100.8,25.79,100.58z"/>
			<path class="st63" d="M33.52,99.78c0.46,0,0.92,0,1.38,0c-0.44-0.28-0.91-0.1-1.37-0.11c-0.01,0-0.03,0.03-0.03,0.05
				C33.49,99.74,33.51,99.76,33.52,99.78z"/>
			<path class="st64" d="M51.06,100.57c-0.13-0.15-0.16-0.34-0.16-0.53c-0.09-0.04-0.18-0.09-0.27-0.13c0,0.23,0.02,0.47-0.14,0.67
				C50.68,100.57,50.87,100.57,51.06,100.57z"/>
			<path class="st64" d="M41.25,99.78c0.04,0,0.08,0,0.13-0.01c0.4,0,0.81,0,1.21,0C42.14,99.7,41.68,99.48,41.25,99.78z"/>
			<path class="st64" d="M43.18,99.78c0.09,0,0.18-0.01,0.26-0.01c0.36,0,0.72,0,1.08,0C44.07,99.7,43.61,99.47,43.18,99.78z"/>
			<path class="st59" d="M74.39,99.77c0.46,0,0.92,0,1.38,0C75.31,99.54,74.85,99.56,74.39,99.77z"/>
			<path class="st64" d="M49.12,100.58c-0.13-0.15-0.16-0.34-0.16-0.53c-0.09,0-0.17,0-0.26,0c0.01,0.19-0.02,0.37-0.15,0.53
				C48.74,100.57,48.93,100.57,49.12,100.58z"/>
			<path class="st59" d="M60.3,100.47c-0.46,0.04-0.94-0.11-1.39,0.1c0.46,0,0.92,0.01,1.38,0.01
				C60.3,100.55,60.3,100.51,60.3,100.47z"/>
			<path class="st59" d="M58.37,100.47c-0.46,0.05-0.94-0.12-1.39,0.11c0.46,0,0.92,0,1.39,0
				C58.37,100.54,58.37,100.51,58.37,100.47z"/>
			<path class="st41" d="M14.04,99.78c0.32,0.01,0.65,0.15,0.97-0.01C14.68,99.55,14.36,99.54,14.04,99.78z"/>
			<path class="st64" d="M37.24,99.91c0.2-0.2,0.47-0.04,0.69-0.13C37.67,99.65,37.38,99.38,37.24,99.91z"/>
			<path class="st63" d="M22.46,99.77c0.32,0.06,0.68-0.12,0.97,0.14c0.19-0.22,0.02-0.27-0.15-0.27
				C23.01,99.65,22.7,99.53,22.46,99.77z"/>
			<path class="st64" d="M44.83,99.92c0.01,0.23,0.01,0.46-0.14,0.65c0.19,0,0.38,0.01,0.57,0.01c-0.05-0.04-0.1-0.08-0.15-0.12
				C44.85,100.36,45.14,99.98,44.83,99.92z"/>
			<path class="st59" d="M72.32,99.78c0.37,0,0.74,0,1.1-0.01C73.05,99.56,72.68,99.55,72.32,99.78z"/>
			<path class="st64" d="M37.66,100.58c-0.2-0.13-0.49-0.19-0.42-0.53c-0.09,0.14-0.18,0.28-0.28,0.42c0,0,0,0,0,0
				c-0.05,0.03-0.06,0.06-0.05,0.08c0.01,0.03,0.03,0.04,0.05,0.04C37.19,100.58,37.43,100.58,37.66,100.58z"/>
			<path class="st63" d="M36.01,99.74c0.26,0,0.52,0,0.78,0c0-0.02,0.01-0.04,0.01-0.06c-0.25,0-0.51,0-0.76,0
				C36.03,99.7,36.02,99.72,36.01,99.74z"/>
			<path class="st59" d="M69.28,99.77c0.28,0.01,0.57-0.03,0.82,0.14C69.95,99.57,69.8,99.55,69.28,99.77z"/>
			<path class="st41" d="M19.98,99.78c0.18-0.04,0.37,0.22,0.55,0C20.35,99.6,20.17,99.51,19.98,99.78z"/>
			<path class="st64" d="M42.9,100.57c0.05,0,0.09,0,0.14,0c0-0.22,0-0.43,0-0.65c-0.05,0-0.09,0-0.14-0.01
				C42.9,100.14,42.9,100.36,42.9,100.57z"/>
			<path class="st63" d="M23.43,100.05c-0.01,0.15,0.02,0.32-0.13,0.42c-0.04,0.07-0.03,0.14,0.04,0.19
				c0.15,0.06,0.29,0.06,0.39-0.09c0-0.04-0.01-0.07-0.02-0.11C23.61,100.32,23.52,100.18,23.43,100.05z"/>
			<path class="st59" d="M70.11,100.05c0.01,0.19-0.02,0.37-0.15,0.53c0.15,0,0.29,0,0.44,0c-0.01-0.04-0.02-0.07-0.03-0.11
				C70.29,100.32,70.2,100.18,70.11,100.05z"/>
			<path class="st63" d="M32.26,99.78c0.23,0,0.46,0,0.69,0C32.72,99.51,32.49,99.6,32.26,99.78z"/>
			<path class="st65" d="M89.3,100.6c0.05-0.05,0.1-0.1,0.16-0.15c0-0.18,0-0.35,0-0.53c-0.05,0-0.1,0-0.16,0
				C89.3,100.14,89.3,100.37,89.3,100.6z"/>
			<path class="st59" d="M86,99.77c0.18,0,0.36,0,0.55,0c-0.19-0.22-0.45-0.17-0.66-0.11C85.78,99.7,85.94,99.75,86,99.77z"/>
			<path class="st59" d="M74.4,100.58c-0.05-0.04-0.1-0.08-0.15-0.12c-0.09,0-0.19,0-0.28-0.01c-0.09,0.04-0.18,0.08-0.27,0.12
				C73.93,100.58,74.16,100.58,74.4,100.58z"/>
			<path class="st59" d="M72.34,100.57c-0.01-0.04-0.01-0.07-0.02-0.11c-0.09,0-0.19,0-0.28-0.01c-0.14,0.02-0.3,0-0.41,0.12
				C71.86,100.58,72.1,100.57,72.34,100.57z"/>
			<path class="st63" d="M27.72,99.78c0.18,0,0.37,0,0.55,0C28.08,99.61,27.9,99.51,27.72,99.78z"/>
			<path class="st66" d="M129.35,107.48c0.1,0,0.19,0.01,0.29,0.01c0-2.29-0.01-4.58-0.01-6.87c-0.13-0.09-0.25-0.09-0.35,0.05
				c-0.2,0.37-0.13,0.77-0.13,1.15c-0.02,1.61-0.01,3.22,0,4.82C129.14,106.93,129.11,107.23,129.35,107.48z"/>
			<path class="st67" d="M130.1,101.17c-0.11,0.01-0.17,0.09-0.13,0.18c0.03,0.07,0.12,0.14,0.19,0.15
				c0.12,0.02,0.14-0.09,0.13-0.18C130.28,101.21,130.2,101.18,130.1,101.17z"/>
			<path class="st68" d="M129.36,100.6c-0.18-0.01-0.36-0.02-0.54-0.03c-0.84,0-1.67,0-2.51,0c-0.46-0.26-0.91-0.26-1.37,0
				c-0.23,0-0.47,0-0.7,0c-0.41-0.25-0.82-0.25-1.23,0c-0.23,0-0.47,0-0.7,0c-0.18-0.1-0.34-0.11-0.48,0.07
				c-0.14,1.19-0.04,2.38-0.06,3.57c-0.02,0.85-0.01,1.7,0,2.54c0,0.25-0.05,0.51,0.14,0.72c2.48,0,4.96,0,7.44,0
				C129.35,105.18,129.35,102.89,129.36,100.6z"/>
			<path class="st69" d="M106.56,100.62c0,1.56,0.02,3.12-0.01,4.68c-0.01,0.49,0.1,0.69,0.64,0.69c3.22-0.02,6.43-0.02,9.65,0
				c0.54,0,0.65-0.19,0.64-0.68c-0.03-1.56-0.01-3.12-0.01-4.68C113.84,100.63,110.2,100.63,106.56,100.62z"/>
			<path class="st70" d="M104.06,100.45c0-0.17,0-0.35,0-0.52c-0.22-0.14-0.44-0.13-0.67,0c-0.02,0.19,0.08,0.4-0.11,0.56
				C103.56,100.65,103.81,100.64,104.06,100.45z"/>
			<path class="st71" d="M102.71,99.92c0.07,0.23-0.33,0.8,0.4,0.54c0-0.17-0.01-0.35-0.01-0.52
				C102.98,99.78,102.85,99.8,102.71,99.92z"/>
			<path class="st72" d="M102.71,99.46c-0.04,0.01-0.07,0.01-0.11,0c-0.01,0.06-0.02,0.11-0.03,0.17c0.22,0.21,0.45,0.13,0.68,0.01
				c0.27-0.08,0.6,0.14,0.81-0.18c-0.04,0.01-0.08,0.02-0.12,0.01c-0.32-0.22-0.67-0.17-1.02-0.12
				C102.84,99.37,102.77,99.41,102.71,99.46z"/>
			<path class="st23" d="M103.25,99.64c-0.23,0-0.46-0.01-0.68-0.01c0,0,0,0,0,0c-0.04,0.04-0.07,0.08-0.07,0.14
				c0.01,0.06,0.03,0.1,0.08,0.14c0.05,0,0.1,0,0.15,0.01c0.13,0.01,0.26,0.02,0.39,0.02C103.15,99.84,103.2,99.74,103.25,99.64z"/>
			<path class="st72" d="M103.4,99.93c0.22-0.08,0.44-0.08,0.67,0c0.01-0.05,0.02-0.1,0.04-0.16
				C103.86,99.81,103.58,99.65,103.4,99.93z"/>
			<path class="st1" d="M24.67,107.64c-0.32,0-0.64,0-0.97,0C24.03,107.85,24.35,107.86,24.67,107.64z"/>
			<path class="st73" d="M102.84,99.48c0.37,0,0.73-0.01,1.1-0.01c0-0.18-0.01-0.36-0.01-0.54c-0.13-1.08-0.02-2.17-0.06-3.26
				c-0.01-0.24,0.06-0.5-0.07-0.73c-0.32,0-0.64,0-0.96,0C102.73,96.45,102.73,97.96,102.84,99.48z"/>
			<path class="st74" d="M102.84,99.48c0-1.51,0-3.03,0-4.54c-0.03-0.03-0.07-0.06-0.1-0.1c-0.01,1.54-0.02,3.08-0.03,4.62
				c0,0,0.06,0.03,0.06,0.03L102.84,99.48z"/>
			<path class="st75" d="M103.8,94.94c0,1.12,0,2.23,0,3.35c0,0.22-0.08,0.46,0.12,0.64c0-1.32-0.01-2.65-0.01-3.97
				c0-0.01-0.03-0.04-0.04-0.04C103.85,94.92,103.83,94.93,103.8,94.94z"/>
			<path class="st4" d="M102.56,99.77c0-0.05,0-0.09,0-0.14c-1.7,0-3.41,0-5.11,0c0.31,0.27,0.69,0.08,1.03,0.14
				c0.25,0.04,0.54-0.1,0.76,0.15c-0.14,0.17-0.15,0.35,0,0.53c0,0.04,0.01,0.09,0.01,0.13c0.09,0,0.19,0,0.28,0.01
				c0.04-0.04,0.08-0.09,0.11-0.14c0.05-0.13,0.06-0.28,0.15-0.4c0.38-0.15,0.76-0.15,1.14,0.01c0.09,0.12,0.1,0.26,0.15,0.39
				c0.03,0.05,0.06,0.1,0.11,0.14c0.14,0,0.28-0.01,0.42-0.01C101.55,99.86,102.23,100.02,102.56,99.77z"/>
			<path class="st8" d="M46.91,107.64c-2.35,0-4.69,0-7.04,0c0.2,0.22,0.47,0.13,0.71,0.13c2.11,0.01,4.22,0,6.33,0
				c0.05-0.03,0.06-0.06,0.05-0.09C46.94,107.66,46.92,107.64,46.91,107.64z"/>
			<path class="st1" d="M50.22,107.64c-0.37,0-0.74,0-1.1,0C49.48,107.85,49.85,107.85,50.22,107.64z"/>
			<path class="st1" d="M46.91,107.64c0,0.05,0,0.09,0,0.14c0.37-0.06,0.76,0.14,1.1-0.14C47.64,107.64,47.27,107.64,46.91,107.64z"
				/>
			<path class="st3" d="M23.72,100.57c-0.15,0-0.29,0.01-0.44,0.01c-0.17-0.12-0.33-0.11-0.49,0.02c-0.16,0.17-0.12,0.39-0.12,0.59
				c0,1.9,0,3.8,0,5.7c0,0.22-0.07,0.47,0.2,0.6c1.79,0,3.59,0,5.38,0c0.26-0.11,0.28-0.34,0.27-0.58
				c-0.01-1.96,0.05-3.93-0.07-5.89c-0.01-0.17-0.04-0.32-0.2-0.4c-0.18-0.01-0.36-0.02-0.55-0.04c-0.24,0-0.48,0-0.72,0
				c-0.41,0-0.81,0-1.22,0c-0.24,0-0.48,0-0.72,0C24.62,100.57,24.17,100.57,23.72,100.57z"/>
			<path class="st76" d="M46.08,100.6c-0.09,0-0.18,0-0.27,0c0,2.29-0.01,4.58-0.01,6.87c0.14,0,0.28,0,0.42,0
				c-0.17-0.24-0.14-0.52-0.14-0.79C46.08,104.66,46.08,102.63,46.08,100.6z"/>
			<path class="st77" d="M40.28,100.6c-0.09,0-0.18,0-0.27,0c0,2.29,0,4.58-0.01,6.87c0.1,0,0.19,0,0.29,0
				C40.28,105.19,40.28,102.89,40.28,100.6z"/>
			<path class="st78" d="M121.89,100.61c-0.09,0-0.18,0-0.27,0c0,2.29-0.01,4.58-0.01,6.87c0.1,0,0.19,0,0.29,0
				C121.9,105.19,121.9,102.9,121.89,100.61z"/>
			<path class="st79" d="M71.34,100.61c-0.09,0-0.18,0-0.27-0.01c0,2.29-0.01,4.58-0.01,6.87c0.05,0,0.11,0,0.16,0
				c0.15-0.25,0.12-0.53,0.12-0.8C71.35,104.65,71.35,102.63,71.34,100.61z"/>
			<path class="st80" d="M28.27,100.61c0.2,2.29,0.23,4.58-0.01,6.87c0.14,0,0.28,0,0.42,0c0-1.67-0.02-3.33,0-5
				c0-0.63-0.34-1.25-0.01-1.88C28.54,100.61,28.4,100.61,28.27,100.61z"/>
			<path class="st81" d="M22.88,107.48c-0.11-0.18-0.14-0.38-0.14-0.59c0-1.89,0-3.79,0-5.68c0-0.21,0.02-0.41,0.13-0.59
				c-0.13-0.14-0.27-0.14-0.4,0c0.13,0.2,0.13,0.43,0.13,0.66c0,2.06,0,4.13-0.01,6.19C22.69,107.48,22.78,107.48,22.88,107.48z"/>
			<path class="st4" d="M11.56,99.77c-0.42,0-0.84,0-1.26,0C10.72,99.98,11.14,99.97,11.56,99.77z"/>
			<path class="st58" d="M85.43,100.61c-0.04-0.01-0.08-0.03-0.12-0.04c-0.05,0.02-0.11,0.03-0.16,0.05c-0.27,0.07-0.54,0.07-0.8,0
				c-0.05,0-0.11,0-0.16,0c-1.19,0.09-2.37,0.04-3.56,0.04c-1.81,0.01-3.61,0-5.42,0.01c-0.22,0-0.46-0.06-0.67,0.06
				c0,1.54,0.01,3.08-0.01,4.62c-0.01,0.48,0.14,0.63,0.63,0.63c3.18-0.02,6.35-0.01,9.53-0.01c0.64,0,0.74-0.2,0.7-0.84
				C85.28,103.63,85.18,102.12,85.43,100.61z"/>
			<path class="st82" d="M99.29,106.4c1.03,0,2.07-0.02,3.1,0.01c0.45,0.01,0.6-0.13,0.6-0.59c0-1.08,0.02-1.08-1.06-1.08
				c-1.93,0-3.86,0.03-5.79-0.02c-0.72-0.02-0.63,0.4-0.62,0.83c0.01,0.42-0.14,0.89,0.6,0.85C97.17,106.36,98.23,106.4,99.29,106.4
				z"/>
			<path class="st83" d="M97.22,102.81c-0.34,0-0.69,0.01-1.03,0c-0.3-0.01-0.4,0.14-0.4,0.42c0,0.29,0.12,0.41,0.41,0.41
				c0.69-0.01,1.37-0.01,2.06,0c0.27,0,0.43-0.08,0.43-0.39c0.01-0.33-0.12-0.46-0.45-0.44C97.91,102.82,97.56,102.81,97.22,102.81z
				"/>
			<path class="st83" d="M103.91,103.63c0.25,0,0.5,0.01,0.76,0c0.2-0.01,0.45,0.02,0.42-0.3c-0.03-0.27-0.04-0.56-0.45-0.53
				c-0.5,0.03-1.01,0.01-1.51,0c-0.28,0-0.42,0.1-0.43,0.4c-0.01,0.33,0.14,0.45,0.46,0.43
				C103.4,103.62,103.66,103.63,103.91,103.63z"/>
			<path class="st83" d="M100.05,102.81c-0.21,0-0.41,0-0.62,0c-0.28,0-0.32,0.2-0.32,0.42c0,0.24,0.07,0.4,0.34,0.4
				c0.39,0,0.78-0.01,1.16,0.01c0.35,0.01,0.53-0.17,0.53-0.48c0-0.34-0.29-0.35-0.55-0.35
				C100.41,102.81,100.23,102.81,100.05,102.81C100.05,102.81,100.05,102.81,100.05,102.81z"/>
			<path class="st84" d="M74.53,100.74c2.98,0,5.95,0,8.93,0c0.24,0,0.51,0.09,0.72-0.11c-0.23-0.02-0.46-0.03-0.68-0.05
				c-0.04-0.04-0.09-0.04-0.13,0c-2.7,0.01-5.39,0.02-8.09,0.03c-0.25,0-0.5,0.01-0.75,0.02C74.52,100.66,74.53,100.7,74.53,100.74z
				"/>
			<path class="st58" d="M93.15,104.46c0.22-0.13,0.81,0.28,0.8-0.3c-0.01-0.63-0.57-0.12-0.87-0.23c-0.2-0.08-0.45-0.01-0.68-0.02
				c-0.15-0.01-0.33-0.1-0.34,0.17c-0.01,0.2,0.02,0.38,0.27,0.39C92.59,104.47,92.84,104.46,93.15,104.46z"/>
			<path class="st62" d="M88.36,103.49c0.2-0.02,0.36-0.1,0.35-0.32c-0.01-0.27-0.24-0.22-0.41-0.22c-0.18,0-0.39,0-0.35,0.27
				C87.99,103.43,88.17,103.49,88.36,103.49z"/>
			<path class="st85" d="M89.19,103.19c0.05,0.25,0.24,0.3,0.46,0.3c0.17,0,0.31-0.02,0.28-0.26c-0.02-0.23-0.12-0.32-0.35-0.29
				C89.42,102.97,89.2,102.91,89.19,103.19z"/>
			<path class="st86" d="M90.44,103.2c0.04,0.21,0.18,0.29,0.39,0.29c0.2,0,0.37-0.08,0.38-0.3c0-0.32-0.26-0.23-0.45-0.24
				C90.59,102.94,90.44,102.97,90.44,103.2z"/>
			<path class="st87" d="M86.74,103.18c-0.03,0.33,0.15,0.32,0.31,0.32c0.23,0,0.43-0.07,0.43-0.33c-0.01-0.27-0.25-0.2-0.42-0.22
				C86.82,102.92,86.7,103.01,86.74,103.18z"/>
			<path class="st23" d="M99.53,100.45c0,0.04,0,0.08,0,0.13c0.55,0,1.1,0,1.65,0c0-0.04,0-0.08,0-0.13
				C100.63,100.15,100.08,100.15,99.53,100.45z"/>
			<path class="st67" d="M71.67,101.32c0.03,0.09,0.08,0.17,0.18,0.16c0.1-0.01,0.16-0.1,0.13-0.19c-0.01-0.05-0.09-0.1-0.14-0.11
				C71.75,101.16,71.68,101.21,71.67,101.32z"/>
			<path class="st88" d="M120.93,101.39c0.06,0.04,0.11,0.1,0.15,0.1c0.04-0.01,0.1-0.08,0.1-0.13c0.01-0.09-0.05-0.17-0.15-0.14
				C120.98,101.23,120.97,101.32,120.93,101.39z"/>
			<path class="st89" d="M53.14,102.38c-1.31,0-2.62,0.01-3.93,0.01c-0.2,0-0.47-0.07-0.54,0.17c-0.06,0.19,0.19,0.29,0.3,0.43
				c1.04,1.31,2.41,1.82,4.05,1.74c0.71-0.04,1.42-0.01,2.14,0c0.31,0,0.48-0.11,0.46-0.44c-0.01-0.16,0-0.32,0-0.48
				c0-1.39,0-1.39-1.38-1.42C53.86,102.19,53.5,102.24,53.14,102.38z"/>
			<path class="st90" d="M53.14,102.38c0.36,0.09,0.73,0.09,1.09,0.01c-0.12-0.27,0.24-0.7-0.28-0.83
				c-0.18,0.06-0.25,0.28-0.45,0.31c-0.06-0.09-0.12-0.24-0.19-0.26c-0.14-0.02-0.17,0.13-0.14,0.24
				C53.21,102.04,53.22,102.21,53.14,102.38z"/>
			<path class="st91" d="M53.5,101.87c0.45,0.33,0.38-0.08,0.45-0.31c0-0.32,0-0.64,0.01-0.96c-0.15,0.01-0.3,0.01-0.45,0.02
				C53.29,101.04,53.59,101.46,53.5,101.87z"/>
			<path class="st92" d="M46.66,101.17c-0.12,0.02-0.22,0.07-0.22,0.21c0.01,0.1,0.1,0.15,0.19,0.15c0.13-0.01,0.21-0.09,0.21-0.22
				C46.86,101.18,46.76,101.17,46.66,101.17z"/>
			<path class="st93" d="M70.49,101.17c-0.09,0-0.2,0.02-0.18,0.14c0.01,0.07,0.09,0.16,0.16,0.19c0.09,0.04,0.17-0.02,0.17-0.13
				C70.63,101.27,70.6,101.19,70.49,101.17z"/>
			<path class="st89" d="M35.73,102.4c-0.28,0.24-0.63,0.16-0.92,0.11c-1.4-0.23-2.8-0.06-4.2-0.11c-0.16-0.01-0.35-0.03-0.43,0.14
				c-0.09,0.19,0.12,0.27,0.21,0.39c1.06,1.29,2.4,1.94,4.1,1.82c0.71-0.05,1.43-0.02,2.14,0c0.35,0.01,0.52-0.12,0.49-0.48
				c-0.01-0.16,0-0.32,0-0.48C37.1,102.39,37.1,102.39,35.73,102.4L35.73,102.4z"/>
			<path class="st10" d="M35.46,101.58c-0.08,0.47-0.1,0.48-0.44,0.27c-0.06-0.07-0.14-0.21-0.17-0.2c-0.21,0.07-0.09,0.26-0.1,0.4
				c-0.01,0.16,0.02,0.33,0.24,0.34c0.25,0.01,0.5,0.01,0.75,0.01c0,0,0,0,0,0C35.59,102.14,35.98,101.71,35.46,101.58z"/>
			<path class="st94" d="M29.17,101.1c-0.14,0.02-0.19,0.11-0.2,0.23c-0.01,0.13,0.06,0.21,0.19,0.22c0.12,0.01,0.25-0.05,0.26-0.17
				C29.43,101.23,29.32,101.14,29.17,101.1z"/>
			<path class="st63" d="M36.96,100.59c0-0.04,0-0.08,0-0.12c-0.5,0.08-1.03-0.15-1.52,0.13C35.95,100.59,36.46,100.59,36.96,100.59
				z"/>
			<path class="st95" d="M39.47,101.11c-0.11,0.05-0.21,0.12-0.21,0.25c0,0.1,0.09,0.16,0.19,0.16c0.12-0.01,0.14-0.11,0.14-0.2
				C39.58,101.23,39.61,101.12,39.47,101.11z"/>
			<path class="st96" d="M17.16,101.33c0,0.11,0.06,0.18,0.15,0.19c0.15,0.02,0.27-0.07,0.27-0.22c0-0.07-0.08-0.19-0.14-0.19
				C17.29,101.09,17.21,101.2,17.16,101.33z"/>
			<path class="st97" d="M21.8,101.32c0,0.09,0.02,0.2,0.14,0.18c0.07-0.01,0.16-0.09,0.19-0.16c0.04-0.09-0.02-0.17-0.13-0.17
				C21.89,101.18,21.81,101.21,21.8,101.32z"/>
			<path class="st93" d="M45.31,101.52c0.04-0.04,0.12-0.09,0.15-0.17c0.03-0.1-0.02-0.17-0.14-0.18c-0.1,0-0.18,0.04-0.19,0.15
				C45.13,101.42,45.15,101.51,45.31,101.52z"/>
			<path class="st95" d="M40.76,101.19c-0.03,0.04-0.12,0.11-0.12,0.17c0.01,0.13,0.12,0.19,0.24,0.16c0.09-0.02,0.16-0.09,0.13-0.2
				C40.99,101.23,40.91,101.18,40.76,101.19z"/>
			<path class="st98" d="M62.41,101.56c-0.87,0-1.75-0.01-2.62,0c-1,0.01-1.73,0.66-1.83,1.61c-0.08,0.85,0.5,1.62,1.49,1.75
				c1.69,0.21,3.39,0.04,5.09,0.08c0.34,0.01,0.68,0,1.02-0.1c0.85-0.24,1.32-0.94,1.23-1.88c-0.08-0.81-0.72-1.43-1.56-1.45
				C64.3,101.55,63.35,101.57,62.41,101.56z"/>
			<path class="st84" d="M84.34,100.62c0.27,0.18,0.54,0.18,0.8,0C84.88,100.62,84.61,100.62,84.34,100.62z"/>
			<path class="st4" d="M50.37,99.77c-0.42,0-0.84,0-1.26,0C49.53,99.97,49.95,99.98,50.37,99.77z"/>
			<path class="st99" d="M128.81,101.1c-0.15-0.02-0.22,0.06-0.24,0.18c-0.02,0.13,0.08,0.22,0.19,0.24
				c0.15,0.02,0.26-0.05,0.27-0.21C129.03,101.16,128.89,101.15,128.81,101.1z"/>
			<path class="st97" d="M122.44,101.53c0.11-0.02,0.2-0.07,0.19-0.17c-0.01-0.13-0.11-0.19-0.24-0.19c-0.1,0-0.19,0.04-0.17,0.16
				C122.24,101.44,122.33,101.52,122.44,101.53z"/>
			<path class="st100" d="M112.02,101.56c-0.9,0-1.79-0.01-2.69,0c-0.97,0.01-1.67,0.65-1.78,1.58c-0.09,0.77,0.54,1.56,1.4,1.77
				c0.18,0.04,0.36,0.09,0.54,0.09c1.68,0.01,3.36,0.02,5.03,0c1.4-0.02,2.18-1,1.84-2.24c-0.2-0.7-0.81-1.18-1.59-1.19
				C113.86,101.55,112.94,101.56,112.02,101.56z"/>
			<path class="st23" d="M99.52,99.91c0.55,0,1.1,0,1.66,0C100.63,99.68,100.08,99.69,99.52,99.91z"/>
			<path class="st101" d="M23.36,101.52c0.17-0.01,0.18-0.1,0.17-0.19c-0.01-0.11-0.09-0.15-0.19-0.15c-0.11,0-0.17,0.08-0.13,0.18
				C23.24,101.42,23.32,101.47,23.36,101.52z"/>
			<path class="st102" d="M27.62,101.37c0.05,0.04,0.11,0.12,0.18,0.14c0.1,0.02,0.16-0.06,0.16-0.16c0-0.1-0.07-0.17-0.17-0.17
				C27.69,101.17,27.63,101.22,27.62,101.37z"/>
			<path class="st103" d="M79.88,101.56c-0.85,0-1.7-0.01-2.55,0c-1.04,0.01-1.83,0.72-1.84,1.65c-0.01,1.03,0.76,1.79,1.85,1.79
				c1.68,0.01,3.36,0.01,5.03,0c1.24-0.01,1.99-0.71,1.96-1.81c-0.02-1.01-0.77-1.63-1.98-1.63
				C81.53,101.56,80.71,101.56,79.88,101.56z"/>
		</g>


<g id="bomb">
			<polygon class="st__0" points="24.53,9.1 26.92,11.39 27.43,10.86 27.43,10.86 27.43,10.86 27.94,10.32 27.64,10.03 28.49,6.58 
				28.67,6.58 28.67,5.1 24.53,5.1 			"/>
			<polygon class="st__1" points="30.94,6.58 31.13,6.58 31.98,10.03 31.67,10.32 32.18,10.86 32.18,10.86 32.18,10.86 32.7,11.39 
				35.09,9.1 35.09,5.1 30.94,5.1 			"/>
			<polygon class="st__2" points="28.94,4.04 30.67,4.04 33.36,12.13 26.2,12.13 			"/>
			<path class="st__0" d="M26.2,12.13l7.16,0l0,16.78c0,1.95-1.59,3.53-3.53,3.53h-0.09c-1.95,0-3.53-1.59-3.53-3.53L26.2,12.13
				L26.2,12.13z"/>
			<path class="st__3" d="M26.2,26.03l7.16,0l0,2.88c0,1.95-1.59,3.53-3.53,3.53h-0.09c-1.95,0-3.53-1.59-3.53-3.53V26.03L26.2,26.03z
				"/>
			<path class="st__1" d="M29.78,12.13l3.58,0l0,16.78c0,1.95-1.59,3.53-3.53,3.53h-0.05L29.78,12.13z"/>
			<path class="st__4" d="M29.78,32.45l0-6.42l3.58,0l0,2.88c0,1.95-1.59,3.53-3.53,3.53H29.78z"/>
			<polygon class="st__5" points="29.78,4.04 30.67,4.04 33.36,12.13 29.78,12.13 			"/>
		</g>

<polygon id="explosion" class="st_1" points="25,8.35 26.3,16.78 30.15,9.16 28.78,17.58 34.79,11.53 30.89,19.11 38.47,15.21 32.42,21.22 
	40.84,19.85 33.22,23.7 41.65,25 33.22,26.3 40.84,30.15 32.42,28.78 38.47,34.79 30.89,30.89 34.79,38.47 28.78,32.42 30.15,40.84 
	26.3,33.22 25,41.65 23.7,33.22 19.85,40.84 21.22,32.42 15.21,38.47 19.11,30.89 11.53,34.79 17.58,28.78 9.16,30.15 16.78,26.3 
	8.35,25 16.78,23.7 9.16,19.85 17.58,21.22 11.53,15.21 19.11,19.11 15.21,11.53 21.22,17.58 19.85,9.16 23.7,16.78 "/>

	<defs> 
<path id="wave" d="M55.97,27.11l-3.4-3.07c-1.5-1.36-3.94-1.36-5.44,0l-0.52,0.47c-1.5,1.36-3.94,1.36-5.44,0l-0.62-0.56
	c-1.5-1.36-3.94-1.36-5.44,0l-0.71,0.64c-1.5,1.36-3.94,1.36-5.44,0l-0.84-0.76c-1.5-1.36-3.94-1.36-5.44,0l-0.96,0.87
	c-1.5,1.36-3.94,1.36-5.44,0l-0.84-0.76c-1.5-1.36-3.94-1.36-5.44,0l-0.82,0.74c-1.5,1.36-3.94,1.36-5.44,0l-0.79-0.72
	c-1.5-1.36-3.94-1.36-5.44,0l-3.26,2.95l0,0l0,0L-6,27.14l0.25,0V50h61.43V27.11L55.97,27.11z"/>
  </defs>
  <g class="waves">
   <use href="#wave" id="wave1" x="50" y="32" fill="#4579e2"/>
   <use href="#wave" id="wave2"  x="50" y="35" fill="#3461c1"/>
   <use href="#wave" id="wave3" x="50" y="38" fill="#2d55aa"/>  
  </g>
</svg>

