<!--
credits
crate: https://www.svgrepo.com/svg/57080/crate
brick wall: https://www.svgrepo.com/svg/199194/brick-wall-wall
luigi and shell: https://www.mariowiki.com/images/3/34/Green_Shell_-_2D_art.svg
-->
<?xml version="1.0" encoding="utf-8"?>
<!-- Generator: Adobe Illustrator 24.1.1, SVG Export Plug-In . SVG Version: 6.00 Build 0)  -->
<svg version="1.1" xmlns="http://www.w3.org/2000/svg" xmlns:xlink="http://www.w3.org/1999/xlink" x="0px" y="0px"
    viewBox="0 0 140 140" style="enable-background:new 0 0 140 140;" xml:space="preserve">
    <style type="text/css">
        .st0 {
            fill: #33B540;
        }

        .st1 {
            fill: #FFFFFF;
        }

        .st2 {
            fill: #181210;
        }

        .st3 {
            fill: #FBCBA5;
        }

        .st4 {
            fill: #814329;
        }

        .st5 {
            fill: #59C9EB;
        }

        .st6 {
            fill: #ED1C24;
        }

        .st7 {
            fill: #D6A162;
        }

        .st8 {
            fill: #5E3C38;
        }

        .st9 {
            fill: #334B92;
        }

        .st10 {
            fill: #FCD205;
        }

        .st11 {
            fill: #FCD691;
        }

        .st12 {
            fill: #808080;
        }

        .st13 {
            fill: #8F6127;
        }

        .st14 {
            fill: #AD7E4E;
        }

        .st15 {
            fill: #CA965A;
        }

        .st16 {
            fill: #E6E7E8;
        }

        .st17 {
            fill: #70491E;
        }

        .st18 {
            fill: #FFFFFF;
            stroke: #000000;
            stroke-width: 0.25;
            stroke-miterlimit: 10;
        }

        .st19 {
            fill: #D73D65;
            stroke: #000000;
            stroke-width: 0.25;
            stroke-miterlimit: 10;
        }

        .st20 {
            fill: #F7E597;
        }

        .st21 {
            fill: #2F3DF9;
            stroke: #000000;
            stroke-width: 0.25;
            stroke-miterlimit: 10;
        }

        .st22 {
            fill: none;
            stroke: #000000;
            stroke-width: 0.25;
            stroke-miterlimit: 10;
        }

        .st23 {
            fill: #FFFF00;
            stroke: #FF0000;
            stroke-width: 0.025;
            stroke-miterlimit: 10;
        }


        svg:hover #shell_outer {
            animation: shellAnimation 3s forwards;
        }

        svg:hover .bomb_outter
        {
            transform-box: fill-box;
            transform-origin: 20% -75%;
            animation: bombermanWalkAnimationMembersReverse 0.83s ease-in 1 forwards;
        }

        svg:hover .bomb_move
        {
            transform-box: fill-box;
            transform-origin: 20% -75%;
            animation: bombWalkAnimation 0.83s linear 1 forwards;
        }

        svg:hover .bomb
        {
            transform-box: fill-box;
            transform-origin: 50% 50%;
            animation: bombPathAnimation 0.5s linear forwards;   
            animation-delay: 0.83s;
        }

        svg:hover #luigi {
            animation: luigiAnimation 3s infinite;
        }

        svg:hover #flame_path {
            transform-box: fill-box;
            transform-origin: 50% 50%;
            offset-path: path('M21.37,125.72L21.37,125.72c1.02,0.61,2.32-0.05,2.42-1.24l0.49-5.93c0.21-2.56,2.98-4.06,5.24-2.84l4.26,2.3');
            animation: flameMoveAnimation 1.9s linear forwards;
        }

        svg:hover #bomb_body {
            transform-box: fill-box;
            transform-origin: 50% 50%;
            animation: bombBodyAnimation 1s ease-in-out infinite;
        }

        svg:hover #right_crate {
            animation: bombDisappear 0.01s forwards;
            animation-delay: 1.7s;
        }

        svg:hover #bomb_body_inner {
            animation: bombDisappear 0.01s forwards;
            animation-delay: 1.7s;
        }

        svg:hover #flame {
            transform-box: fill-box;
            transform-origin: 50% 50%;
            animation: flameAnimation 0.3s linear 3;
        }

        .stars
        {
            opacity: 0%;
        }

        svg:hover .stars
        {
            transform-box: fill-box;
            transform-origin: 0% -100%;
            animation: starsAnimation 1.5s linear infinite;
        }

        #star1
        {
            animation-delay: 3s;
        }

        #star2
        {
            animation-delay: 3.5s;
        }

        #star3
        {
            animation-delay: 4s;
        }

        svg:hover #front_leg
        {
            transform-box: fill-box;
            transform-origin: 40% 15%; 
            animation:  0.2s BombermanLegsAnimation forwards;
            animation-delay: 2.71s;
        }
        svg:hover #back_leg
        {
            transform-box: fill-box;
            transform-origin: 40% 10%;
            animation: BombermanLegsAnimationFront 0.2s forwards;
            animation-delay: 2.7s;
        }

        svg:hover #front_arm
        {
            transform-box: fill-box;
            transform-origin: 0% 15%; 
            animation: BombermanArmsAnimationLeft 0.4s forwards;
            animation-delay: 2.7s;
        }
        svg:hover #back_arm
        {
            transform-box: fill-box;
            transform-origin: 0% 10%;
            animation: BombermanArmsAnimationRight 0.5s forwards;
            animation-delay: 2.7s;
        }
        svg:hover #Bomberman
        {
            transform-box: fill-box;
            transform-origin: 50% 50%;
            animation: BombermanFallAnimation 0.2s forwards;
            animation-delay: 2.7s;
        }
        svg:hover #Bomberman_outer
        {
            transform-box: fill-box;
            transform-origin: 50% 50%;
            animation: BombermanWalkAnimation linear 2.7s forwards;
        }

        svg:hover #back_leg_move, svg:hover #front_arm_move
        {
            transform-box: fill-box;
            transform-origin: 40% 15%; 
            animation: bombermanWalkAnimationMembersReverse linear 0.83s forwards 3;
        }

        svg:hover #front_leg_move, svg:hover #back_arm_move
        {
            transform-box: fill-box;
            transform-origin: 40% 15%; 
            animation: bombermanWalkAnimationMembers linear 0.83s forwards 3;
        }
        svg:hover #back_arm_move{
            animation-delay: 0.05s;
        }

        @keyframes bombWalkAnimation
        {
            from{
                transform: translateX(0px);
            }   
            to{
                transform: translateX(82px);
            }
        }

        @keyframes bombermanWalkAnimationMembers {
            0% {
                transform: rotate(-40deg);
            }

            50% {
                transform: rotate(40deg);
            }

            100% {
                transform: rotate(-40deg);
            }
        }

        @keyframes bombermanWalkAnimationMembersReverse {
            0% {
                transform: rotate(40deg);
            }

            50% {
                transform: rotate(-40deg);
            }

            100% {
                transform: rotate(40deg);
            }
        }

        @keyframes BombermanWalkAnimation
        {
            0%
            {
                opacity: 100%;
                transform: translateX(0px);
            }
            50%
            {
                opacity: 100%;
                transform: translateX(140px);
            }
            51%
            {
                opacity: 0%;
                transform: translateX(140px);
            }
            79%
            {
                opacity: 0%;
                transform: translateX(-50px);
            }
            80%
            {
                opacity: 100%;
                transform: translateX(-50px);
            }
            100%
            {
                opacity: 100%;
                transform: translateX(20px);
            }
        }

        @keyframes BombermanLegsAnimation
        {
            100% {    
                transform: rotate(-90deg);            
            }
        }
        @keyframes BombermanLegsAnimationFront
        {
            100% {    
                transform: rotate(-120deg);            
            }
        }
        @keyframes BombermanArmsAnimationRight
        {
            100% {    
                transform: rotate(-40deg);            
            }
        }
        @keyframes BombermanArmsAnimationLeft
        {
            100% {    
                transform: rotate(45deg);            
            }
        }

         @keyframes BombermanFallAnimation
        {
            100% {    
                transform: translateY(15px);            
            }
        }

        @keyframes starsAnimation
        {
            0% {
                transform: translate(-2px, 12px) rotate(-90deg) scale(0.8);
                opacity: 0%;
            }
            50% {                
                opacity: 100%;
                transform: translate(-2px, 12px) scale(2);
            }
            100% {
                transform: translate(-2px, 12px) rotate(90deg) scale(0.8);
                opacity: 0%;
            }
        }
        @keyframes bombDisappear
        {
            0% {
                opacity: 100%;
            }
            1% {
                opacity: 0%;
            }
            100% {
                opacity: 0%;
            }
        }

        @keyframes bombPathAnimation
        {
            0% {
               transform: translate(0px, 0);
            }
            100%
            {
               transform: translate(20px, 0px);
            }
        }
        

        @keyframes throwBomb
        {
            from {
                transform: rotate(0deg);
            }
            to
            {
                transform: rotate(-60deg);
            }
        }

         @keyframes flameAnimation {
            0% {
                transform: scale(1);
            }

            50% {
                transform: scale(2);
            }

            100% {
                transform: scale(1);
            }
        }


         @keyframes bombBodyAnimation {
            0% {
                transform: scale(1);
            }

            50% {
                transform: scale(1.1);
            }

            100% {
                transform: scale(1);
            }

        }

         svg:hover #fuse {
            stroke-dasharray: 30;
            stroke-dashoffset: 0;
            animation: fuseAnimation 1.2s linear forwards;
        }

          @keyframes fuseAnimation {
            0% {
                stroke-dashoffset: 0;
                transform: scale(1);
            }

            99% {
                stroke-dashoffset: 30;
                transform: scale(1);
            }

            100% {
                stroke-dashoffset: 30;
                transform: scale(0);
            }
        }

        @keyframes luigiAnimation {
            0% {
                transform: translateX(0px);

            }

            50% {
                transform: translateX(-20px);

            }

            75% {
                transform: translateX(35px);
            }

            80% {
                transform: translateX(35px);
                transform: translateY(-35px);
            }

            85% {
                transform: translateX(35px);
                transform: translateY(0px);
            }

            100% {
                transform: translateX(0px);

            }
        }


        @keyframes shellAnimation {
            0% {
                transform: translateX(0px);

            }

            50% {
                transform: translateX(-20px);

            }

            76% {
                transform: translateX(35px);
            }

            80% {
                transform: translate(25px, 4px) scale(1.05);
            }

            85% {
                transform: translate(49px, 20px)  scale(1.1);
            }

            90% {
                transform: translate(-100px, -10px) scale(1.5);
                }
            100% {
                transform: translate(-100px, -10px) scale(1.5);
                }
            
        }

        
        @keyframes flameMoveAnimation {
            0% {
                offset-distance: 100%;
            }

            75% {
                offset-distance: 0%;
                transform: scale(1)
            }

            80% {
                offset-distance: 0%;
                transform: scale(60);
                opacity: 100%;
            }

            95% {
                offset-distance: 0%;
                transform: scale(60);
                opacity: 100%;
            }

            100% {
                offset-distance: 0%;
                transform: scale(5);
                opacity: 0%;
            }
        }

        @keyframes bombAnimation {
            0% {
                transform: translateX(0px) rotate(40deg);
            }

            33% {
                transform: translateX(-23px) rotate(-40deg);
            }

            66% {
                transform: translateX(-46px) rotate(40deg);
            }

            100% {
                transform: translateX(-70px) rotate(-40deg);
            }
        }
    </style>


    <g id="luigi">
        <g>
            <g id="luigi_arm">
                <path class="st0" d="M64.34,102.35h-0.04c-0.62,0-1.1,0.49-1.14,1.09l-0.8-1.99l-0.8-0.65l-0.41-2.67l-2.29,0.8l1.72,3.2
				l1.78,2.09l0.81,0.45l0.03,2.12l0.64-0.3c0.28-0.13,0.61-0.15,0.9-0.03l0.69,0.26l0.07-3.18
				C65.5,102.88,64.98,102.35,64.34,102.35z" />
                
                <g>
                    <path class="st1" d="M-461.64-383.25l-0.91-0.6l-1-0.11l-1.03,0.6l-0.54,0.03l-0.51,0.43l-0.69,0.38l-0.39,1
					l0.12,1.11l0.6,1.14l1.09,0.76l-0.18,0.43l0.33,0.54l0.72,0.24l2.29-0.8l0.21-1.31l0.5-0.7L-461.64-383.25z" />
                </g>
                <g>
                    <path class="st2" d="M58.04,95.33c0.14-0.02,0.29,0.08,0.33,0.23c0.04,0.15,0.1,0.74,0.05,0.76c-0.08,0.03-0.55-0.43-0.6-0.64
					C57.78,95.49,57.89,95.35,58.04,95.33z" />
                    <path class="st2" d="M59.12,95.12c0.16-0.01,0.28,0.17,0.28,0.38c0,0.21-0.16,0.7-0.23,0.69c-0.07-0.01-0.33-0.49-0.33-0.69
					C58.84,95.29,58.93,95.14,59.12,95.12z" />
                    <path class="st2" d="M57.88,96.51c-0.11,0.06-0.58-0.13-0.76-0.34c-0.12-0.14-0.09-0.32,0.02-0.37
					c0.11-0.06,0.25,0.03,0.38,0.16C57.63,96.08,57.93,96.48,57.88,96.51z" />
                    <path class="st2" d="M57.83,93.03l0.6-0.03l1.03-0.57c0.08-0.02,0.16-0.04,0.25-0.05l0.97,0.1l0.41,0.26
					c0.05,0.04,0.09,0.06,0.14,0.11c0-0.01,0-0.02-0.01-0.03l0.46,0.29l0.48,2.33c0.05,0.29,0.09,0.57,0.13,0.82
					c-0.18,0.25-0.31,0.52-0.41,0.82l-0.07,0.09l-0.23,1.39l-0.05,0.02l0.46,2.82l0.15,0.11c0.16,0.6,0.35,1.19,0.54,1.73
					l-0.36,0.11c-0.51-1.48-1.08-3.27-1.08-4.85c-0.61,0.29-1.29,0.57-1.89,0.67c1.33,2.85,2.57,4.84,4.38,5.76
					c-0.31-0.64-0.97-2.05-1.27-3.11c-0.06-0.06-0.12-0.14-0.18-0.21l0.62,0.47l0.11,0.26c-0.01-0.01-0.02-0.01-0.02-0.02
					c0.28,0.81,0.71,1.79,1.18,2.8c0,0,0.01,0,0.01,0l0.15,0.36c-0.75-0.24-1.41-0.6-2.01-1.11l-1.36-1.52
					c-0.02-0.02-0.04-0.04-0.05-0.07l-1.71-3.03c-0.06-0.11-0.11-0.22-0.17-0.34l0.02-0.01L59,99.41c-0.03-0.07-0.06-0.12-0.09-0.19
					c-0.4,0-0.69-0.14-0.86-0.35l-0.1-0.15c-0.03-0.06-0.05-0.12-0.06-0.19l0.18-0.4l-0.11-0.07c0.01-0.03,0.02-0.05,0.03-0.08
					c-0.94-0.51-1.46-1.18-1.7-2.28c-0.18-0.79,0.05-1.68,0.68-2.06l0.3-0.16l0.15-0.12c0.01,0,0.01-0.01,0.02-0.01
					c0.01-0.01,0.02-0.02,0.03-0.03L57.83,93.03C57.83,93.04,57.83,93.04,57.83,93.03z M57.3,94.14c-0.02-0.12-0.02-0.22-0.02-0.32
					c-0.15,0.09-0.33,0.41-0.39,0.7c-0.03,0.16-0.1,0.14-0.13-0.08c0-0.03-0.01-0.07-0.01-0.1c-0.13,0.34-0.4,1.12,0.17,2.17
					c0.34,0.62,0.86,1.04,1.24,1.21c0.21,0.04,0.61-0.04,0.76-0.06c0.47-0.07,0.29,0.09-0.03,0.2c-0.14,0.05-0.35,0.1-0.51,0.14
					c-0.28,0.27-0.2,0.62,0.01,0.78c0.27,0.21,1.01,0.26,2.85-0.63c0.02-0.33,0.06-0.64,0.14-0.94c-0.12,0.04-0.18,0.05-0.29,0.07
					c-0.24,0.04-0.22-0.02-0.1-0.11c0.1-0.07,0.25-0.17,0.52-0.36c0.08-0.21,0.18-0.4,0.31-0.58c-0.08-0.55-0.2-1.21-0.33-1.91
					c-0.36,0.16-0.66,0.4-0.84,0.68c-0.01,0.02-0.03,0.02-0.04,0.01c-0.2-0.29-0.58-0.76-0.85-1.04c-0.02-0.02-0.02-0.03-0.01-0.05
					c0.11-0.13,0.26-0.31,0.3-0.38c0.06-0.09,0.14-0.09,0.14,0.02c0,0.11-0.02,0.21-0.05,0.3c0.17,0.18,0.35,0.39,0.5,0.6
					c0.22-0.2,0.48-0.37,0.78-0.48c-0.03-0.14-0.05-0.28-0.08-0.42c-0.33-0.6-0.81-0.9-1.39-0.88c-0.7,0.02-1.42,0.47-1.74,1.26
					c-0.12,0.29-0.26,0.09-0.12-0.45c0.02-0.07,0.05-0.15,0.1-0.22c-0.41,0.1-0.64,0.53-0.74,0.89
					C57.44,94.27,57.34,94.37,57.3,94.14z" />
                </g>
            </g>
            <g id="g4722_1_" transform="translate(532.2264,510.2064)">
                <path id="path4724_1_" class="st0" d="M-468.96-403.43l-0.05-3.26c-0.01-0.64,0.51-1.17,1.15-1.17h0.04
				c0.65,0,1.17,0.53,1.15,1.18l-0.07,3.18l-0.69-0.26c-0.29-0.11-0.62-0.1-0.9,0.03L-468.96-403.43z" />
            </g>
            <g id="g4634" transform="translate(549.2635,530.2943)">
                <path id="path4636" class="st0" d="M-478.08-434.62l0.24-0.47l0.17-1.18l-0.28-1.35l-0.64-1.33l-0.95-1.21l-1.14-0.81l-1.02-0.45
				l-1.33,0.02l-1.18,0.54l-1.23,1.14l-0.9,1.09l-0.57,1.21l-0.14,1.04l0.14,1.07l0.38,0.62l0.48,0.02l0.05-0.99l0.17-0.54l0.4,0.06
				l1.44-1.03l1.53-0.28l1.78,0.25l1.18,1.01l0.62-0.11l0.21,0.82l0.02,0.92L-478.08-434.62z" />
            </g>
            <g id="g4638" transform="translate(548.9666,476.2816)">
                <path id="path4640" class="st1" d="M-477.88-363.41l0.71,0.52l0.78,0.09l0.81-0.52l0.43-0.02l0.4-0.38l0.54-0.33l0.31-0.88
				l-0.09-0.97l-0.47-1l-0.85-0.66l0.14-0.38l-0.26-0.47l-0.57-0.21l-1.8,0.7l-0.17,1.15l-0.39,0.62L-477.88-363.41z" />
            </g>
            <g id="g4646" transform="translate(549.1893,490.4544)">
                <path id="path4648" class="st0"
                    d="M-478.03-382.1l1.8-0.7l-1.35-2.8l-1.4-1.82l-1.13-0.7l1.12,3.11l0.63,0.57L-478.03-382.1z" />
            </g>
            <g id="g4654" transform="translate(539.741,510.0824)">
                <path id="path4656" class="st3" d="M-471.59-407.97l-0.08-0.49l0.51-0.52l0.59-0.97l0.5-1.33l0.85-0.12l0.62-0.52l0.54-0.99
				v-1.02l-0.5-0.47l-0.58,0.06l-0.02-0.92l-0.21-0.82l-0.62,0.11l-1.18-1.01l-1.78-0.25l-1.53,0.28l-1.44,1.03l-0.39-0.06
				l-0.17,0.54l-0.05,0.99l-0.48-0.02l-0.54,0.43l-0.14,1l0.43,1.04l0.62,0.52l0.95,0.33l0.47,1.02l0.64,1.02l0.64,0.64l-0.02,0.47
				l1.16,0.28L-471.59-407.97z" />
            </g>
            <g id="g4658" transform="translate(524.3651,533.5921)">
                <path id="path4660" class="st4" d="M-461.11-438.97l0.17-0.54l0.09,0.21l0.11,1.04l0.46,0.65l0.32,0.39l-0.03,0.62l-0.66,0.05
				l-0.38-0.49l-0.09-0.71l-0.03-0.22L-461.11-438.97z" />
            </g>
            <g id="g4662" transform="translate(546.7342,535.5765)">
                <path id="path4664" class="st4" d="M-476.36-441.59l-0.06,0.46l-0.06,0.57l-0.3,0.79l-0.41,0.52l-0.11,0.41l0.28,0.35l0.39-0.06
				l0.41-0.57l0.08-0.73l-0.02-0.92L-476.36-441.59z" />
            </g>
            <g id="g4666" transform="translate(531.2596,535.6507)">
                <path id="path4668" class="st1" d="M-465.81-441.68l-0.38,0.28l-0.22,0.53l-0.05,0.62l0.08,0.46l0.33,0.54l0.33-0.39l0.36-0.25
				l0.51-0.13l-0.02-0.68l-0.21-0.62l-0.3-0.34L-465.81-441.68z" />
            </g>
            <g id="g4670" transform="translate(531.2098,530.0218)">
                <path id="path4672" class="st5" d="M-465.78-434.26l0.11,0.24l0.36-0.25l0.51-0.13l-0.02-0.68l-0.21-0.62l-0.17-0.04l-0.2,0.01
				l-0.25,0.17l-0.14,0.26l-0.06,0.25l-0.02,0.36L-465.78-434.26z" />
            </g>
            <g id="g4674" transform="translate(532.6981,530.0706)">
                <path id="path4676" class="st1" d="M-466.79-434.33l0.51-0.13l-0.02-0.68l-0.5-0.01L-466.79-434.33z" />
            </g>
            <g id="g4678" transform="translate(540.5594,535.6507)">
                <path id="path4680" class="st1" d="M-472.15-441.68l0.38,0.28l0.22,0.53l0.05,0.62l-0.08,0.46l-0.36,0.6l-0.3-0.46l-0.36-0.25
				l-0.51-0.13l0.02-0.68l0.21-0.62l0.3-0.34L-472.15-441.68z" />
            </g>
            <g id="g4682" transform="translate(540.6092,530.0218)">
                <path id="path4684" class="st5" d="M-472.19-434.26l-0.11,0.24l-0.36-0.25l-0.51-0.13l0.02-0.68l0.21-0.62l0.17-0.04l0.2,0.01
				l0.25,0.17l0.14,0.26l0.06,0.25l0.02,0.36L-472.19-434.26z" />
            </g>
            <g id="g4686" transform="translate(539.1219,530.0706)">
                <path id="path4688" class="st1" d="M-471.17-434.33l-0.51-0.13l0.02-0.68l0.5-0.01L-471.17-434.33z" />
            </g>
            <g id="g4690" transform="translate(531.5945,541.7884)">
                <path id="path4692" class="st1" d="M-466.04-449.78l-0.37-0.62l0.01-0.73l0.36-0.63l0.6-0.34l0.73-0.11l0.72,0.13l0.54,0.45
				l0.24,0.57l-0.01,0.71l-0.28,0.5l-1.27-0.2L-466.04-449.78z" />
            </g>
            <g id="g4694" transform="translate(532.8963,518.8743)">
                <path id="path4696" class="st1" d="M-466.93-419.57l0.05,0.26l0.91,0.08l0.97-0.08l0.04-0.24l-0.27-0.18l-1.43,0.02
				L-466.93-419.57z" />
            </g>
            <g id="g4698" transform="translate(534.3104,517.4603)">
                <path id="path4700" class="st6" d="M-467.89-417.7l-0.25,0.34l0.21,0.43l0.26,0.19l0.33,0.08l0.32-0.06l0.28-0.24l0.2-0.43
				l-0.28-0.31l-0.58-0.08L-467.89-417.7z" />
            </g>
            <g id="g4702" transform="translate(533.4666,454.5072)">
                <path id="path4704" class="st7" d="M-467.32-334.7l-0.05,0.83l-1.23,0.12l-0.05-0.14l-1.54,0.24l-2.04-0.07l-0.24-0.88l2.64,0.1
				L-467.32-334.7z" />
            </g>
            <g id="g4706" transform="translate(525.7547,453.8128)">
                <path id="path4708" class="st8" d="M-462.06-333.79l2.5-0.2l0.31-1.09l-0.25-0.79l-1.22-0.09l-1.14-0.74l-1.09-0.36l-1.23,0.11
				l-0.81,0.52l-0.41,1.19l0.7,1.34L-462.06-333.79z" />
            </g>
            <g id="g4710" transform="translate(552.5379,464.3031)">
                <path id="path4712" class="st9" d="M-480.32-347.62l-0.12-0.36l-0.59-0.52l-0.43-2.94l-0.49-2.75l0.39-0.62l0.17-1.15l-0.32-2.33
				l-0.63-0.57l-1.12-3.11l-0.93-0.24l0.11,2.37h-2.57l0.07-2.41l-0.89,0.11l-1.14,3.1l-0.58,0.66l-0.32,1.56v1.47l0.42,1.17
				l-0.94,5.88l-0.49,0.24l-0.02,0.57l1.23-0.11l0.98,0.49l1.25,0.74l1.07,0.05l0.27-0.54l-0.3-0.55l0.43-5.21l0.58,0.01l0.34,5.16
				l-0.31,0.66l0.26,0.47l1.29-0.11l1.09-0.76l1.12-0.39L-480.32-347.62z" />
            </g>
            <g id="g4714" transform="translate(554.7693,454.4828)">
                <path id="path4716" class="st7" d="M-481.84-334.67l-0.24,0.95l-1.71,0.07l-1.85-0.26l-0.09,0.21l-1.26-0.24l-0.02-0.73
				l2.78,0.17L-481.84-334.67z" />
            </g>
            <g id="g4718" transform="translate(554.7693,454.4828)">
                <path id="path4720" class="st8" d="M-481.84-334.67l0.57-1.09l-0.26-1.26l-1.02-0.78l-1.12,0.06l-1.12,0.39l-1.09,0.76
				l-1.29,0.11l-0.14,0.81l0.31,1l2.78,0.17L-481.84-334.67z" />
            </g>
            <g id="g4722" transform="translate(532.2264,510.2064)">
                <path id="path4724" class="st0"
                    d="M-466.47-408.14l-0.07,2.41h2.57l-0.11-2.37l-1.23,0.24L-466.47-408.14z" />
            </g>
            <g id="g4726" transform="translate(527.4402,501.7005)">
                <path id="path4728" class="st10" d="M-463.21-396.92l-0.35,0.47l-0.11,0.57l0.14,0.51l0.27,0.3l0.49,0.08l0.36-0.27l0.27-0.52
				v-0.52l-0.16-0.44l-0.39-0.28L-463.21-396.92z" />
            </g>
            <g id="g4730" transform="translate(544.5526,501.7005)">
                <path id="path4732" class="st10" d="M-474.87-396.92l0.35,0.47l0.11,0.57l-0.14,0.51l-0.27,0.3l-0.49,0.08l-0.36-0.27l-0.27-0.52
				v-0.52l0.16-0.44l0.39-0.28L-474.87-396.92z" />
            </g>
            <g id="g4734" transform="translate(535.3484,548.3851)">
                <path id="path4736" class="st0"
                    d="M-468.6-458.47l-0.55,0.01l0.09,1.6l1.21,0l0.02-0.5l-0.78,0.04L-468.6-458.47z" />
            </g>
            <g>
                <path class="st2" d="M69.16,105.9c-0.09-0.17-0.14-0.42-0.14-0.49s-0.03-0.08-0.07-0.01c-0.05,0.09-0.07,0.39,0.05,0.62
				c0.14,0.26,0.39,0.33,0.48,0.3c0.02-0.01,0.03-0.04,0.01-0.06C69.46,106.25,69.28,106.11,69.16,105.9z" />
                <path class="st2" d="M62.66,113.17c-0.18,1.07-0.37,2.09-0.48,2.7c-0.31,0.16-0.6,0.44-0.68,0.79c-0.26,0.09-0.49,0.22-0.68,0.41
				c-0.55,0.53-0.59,1.18-0.52,1.63c0.08,0.52,0.34,0.9,0.59,1.1h0c-0.01,0.28,0.03,0.57,0.05,0.71c0.04,0.27,0.24,0.43,0.69,0.44
				c0.7,0.03,2.09,0.12,3.01-0.23c0.01,0.06,0.04,0.11,0.12,0.14c0.31,0.1,0.94,0.06,1.15-0.02c0.19-0.08,0.33-0.15,0.37-0.34
				c0.03-0.13,0.03-0.34,0.03-0.65c0.32-0.46,0.38-1.31,0.2-1.8c0.2-0.15,0.33-0.59-0.06-1.17c0,0,0.33-5.04,0.33-5.04l0.14,0.01
				c0.08,0,0.16,0,0.24,0c0.06,1.05,0.33,5.03,0.33,5.03c-0.39,0.58-0.27,1.02-0.06,1.17c-0.18,0.48-0.12,1.33,0.2,1.8
				c0,0.31,0.01,0.52,0.03,0.65c0.04,0.18,0.17,0.26,0.37,0.34c0.21,0.08,0.84,0.13,1.15,0.02c0.08-0.03,0.11-0.08,0.12-0.14
				c0.92,0.34,2.32,0.25,3.01,0.23c0.45-0.02,0.65-0.17,0.69-0.44c0.02-0.14,0.06-0.43,0.05-0.71h0c0.24-0.2,0.51-0.58,0.59-1.1
				c0.07-0.45,0.03-1.09-0.52-1.63c-0.19-0.19-0.42-0.32-0.68-0.41c-0.07-0.35-0.37-0.63-0.68-0.79c-0.11-0.6-0.3-1.63-0.48-2.7
				c0.35,0.41,0.74,0.45,1,0.44c0.43-0.02,0.84-0.22,1.11-0.48c0.25,0.04,0.66-0.06,0.86-0.39c0.1-0.04,0.24-0.11,0.35-0.23
				c0.51-0.32,0.7-1.11,0.56-1.82c-0.19-0.96-0.59-1.55-1.33-1.99c0.26-0.51-0.04-1.09-0.73-1.08c-1.37-3.29-2.63-5.26-4.9-5.68
				l0-0.2c0.73-0.61,1.28-1.68,1.61-2.79c0.01-0.01,0.02-0.03,0.03-0.04c0.7,0.16,1.68-0.61,1.99-1.63
				c0.32-1.03-0.23-1.49-0.45-1.61c0.28-0.38,0.41-0.92,0.37-1.57c-0.1-1.56-1.12-3.5-2.37-4.49c-1.55-1.24-3.22-1.26-4.69-0.07
				c-2.3,1.87-2.63,3.71-2.61,4.59c0.01,0.61,0.2,1.14,0.5,1.48c-0.49,0.2-0.75,0.77-0.63,1.47c0.22,1.2,1.27,1.9,2.04,1.96
				c0.02,0.03,0.05,0.06,0.07,0.09c0.31,0.97,0.85,1.96,1.66,2.55v0.27c-0.35,0.07-0.66,0.19-0.96,0.33l-0.13,0.36
				c0.01-0.01,0.02-0.02,0.04-0.02c-0.06,0.14-0.14,0.32-0.22,0.52l-0.59,1.58c-0.07,0.21-0.13,0.42-0.18,0.62
				c-0.08,0.1-0.17,0.22-0.26,0.33c0.01-0.04,0.02-0.09,0.03-0.13l-0.41,0.35c-0.19,0.79-0.32,1.59-0.32,2.35
				c-0.03-0.02-0.07-0.04-0.11-0.05l-0.03,0.2l0.04,0.01l0.02,0.12c0.03,0.02,0.06,0.03,0.09,0.04c0.01,0.29,0.05,0.56,0.11,0.83
				c-0.03-0.01-0.05-0.02-0.07-0.02l0.03,0.21l0.07,0.11c0.03,0.02,0.05,0.04,0.08,0.06c0.03,0.07,0.06,0.13,0.09,0.2l0.17,0.26
				l-0.11,0.58c-0.05,0.35-0.11,0.74-0.18,1.14c-0.01,0-0.02-0.01-0.03-0.02l-0.05,0.29c0.01,0.01,0.02,0.01,0.03,0.02
				c-0.02,0.12-0.04,0.24-0.06,0.37c-0.02,0.04-0.04,0.06-0.06,0.09l-0.07,0.36 M72.74,107.64c-0.47,0.09-1.01,0.33-1.48,0.58
				c-0.01-1.38-0.45-2.94-0.85-4.24l-0.28,0.1c0.15,0.49,0.31,1.03,0.44,1.58c-0.09-0.12-0.18-0.23-0.26-0.33
				c-0.23-0.93-0.75-2.16-0.99-2.72C70.72,103.41,71.7,105.15,72.74,107.64z M69.54,106.58c-0.31,0.09-0.69-0.19-0.8-0.71
				c-0.1-0.49,0.1-0.97,0.44-1.06c0.35-0.1,0.71,0.25,0.8,0.71C70.09,106.01,69.89,106.49,69.54,106.58z M68.96,102.43
				c0.37,0.89,0.71,1.74,0.93,2.45c-0.19-0.21-0.46-0.35-0.76-0.27c-0.48,0.13-0.7,0.74-0.59,1.3c0.13,0.6,0.59,0.99,1.05,0.86
				c0.27-0.07,0.47-0.31,0.56-0.61c0.01,0.45-0.38,0.84-0.84,0.79c-0.45-0.02-0.81-0.44-0.86-0.87c-0.06-0.47-0.07-0.95-0.08-1.41
				c-0.02-0.89-0.02-1.71-0.07-2.47C68.53,102.27,68.75,102.34,68.96,102.43z M69.68,96.9c-0.11-0.07-0.11-0.22-0.11-0.29
				c0.02-0.16,0.12-0.35,0.27-0.48c0.37-0.32,0.54-1,0.56-1.63c0.14,0.61,0.12,1.22,0.01,1.66c-0.11,0.43-0.24,0.7-0.43,0.78
				C69.86,96.99,69.75,96.94,69.68,96.9z M71.51,97.18c-0.24,0.8-0.96,1.45-1.53,1.44c0.13-0.28,0.12-0.55,0.04-0.77
				c0.04-0.24,0.07-0.47,0.08-0.7c0.16-0.08,0.28-0.23,0.38-0.45c0.43-0.31,0.56-0.18,0.57-0.25c0.01-0.07-0.24-0.13-0.46-0.08
				c0.02-0.07,0.08-0.34,0.09-0.42C71.36,95.68,71.77,96.34,71.51,97.18z M62.35,94.11c-0.01-0.67,0.22-2.42,2.51-4.27
				c1.38-1.12,2.88-1.09,4.34,0.07c1.19,0.95,2.13,2.72,2.22,4.2c0.04,0.63-0.09,1.13-0.36,1.47c-0.11-0.01-0.21,0-0.32,0.03
				c0.07-1.09-0.29-2.57-1.65-3.38c-0.26-0.15-0.54-0.28-0.84-0.37c0.17-0.25,0.26-0.53,0.26-0.83c0-0.92-0.68-1.53-1.7-1.53
				c-0.99,0-1.71,0.64-1.71,1.53c0,0.33,0.11,0.65,0.32,0.91c-0.16,0.06-0.31,0.13-0.45,0.21c-1.24,0.68-1.92,1.99-1.86,3.41
				c-0.07-0.02-0.14-0.03-0.21-0.03C62.63,95.33,62.36,94.86,62.35,94.11z M68.96,92.48c0.66,0.39,1.07,0.96,1.25,1.43
				c-0.36,0.29-0.78-0.24-0.87-0.28c-0.1-0.43-0.35-0.91-0.85-0.98c-0.26-0.04-0.47,0.06-0.63,0.21c-0.66-0.19-1.32-0.17-1.92-0.02
				c-0.16-0.15-0.36-0.24-0.62-0.2c-0.48,0.08-0.76,0.55-0.9,0.97c-0.27,0.22-0.59,0.53-0.8,0.37c0.2-0.53,0.84-1.26,1.44-1.58
				C66.24,91.77,67.8,91.8,68.96,92.48z M65.57,91.89c-0.2-0.24-0.32-0.55-0.32-0.85c0-0.79,0.65-1.37,1.55-1.37
				c0.92,0,1.54,0.55,1.54,1.37c0,0.28-0.09,0.55-0.26,0.78C67.26,91.59,66.37,91.62,65.57,91.89z M62.2,97.02
				c-0.16-0.87,0.4-1.36,0.91-1.12c0.01,0.08,0.05,0.33,0.07,0.41c-0.26-0.07-0.55,0.11-0.54,0.18c0.01,0.07,0.21-0.14,0.64,0.14
				c0.09,0.21,0.21,0.37,0.37,0.47c0.01,0.25,0.03,0.54,0.08,0.86c-0.07,0.23-0.08,0.49,0.02,0.75
				C63.13,98.56,62.37,97.97,62.2,97.02z M63.9,96.94c-0.24-0.06-0.41-0.35-0.49-0.75c-0.13-0.63-0.1-1.25,0.07-1.81
				c-0.02,0.78,0.19,1.36,0.46,1.59c0.17,0.15,0.32,0.27,0.36,0.44c0.04,0.17,0.02,0.32-0.06,0.4
				C64.15,96.92,64.02,96.98,63.9,96.94z M64.29,97.18c-0.04,0-0.18,0.11-0.32,0.3c-0.01-0.1-0.02-0.2-0.02-0.29
				c0.17,0.01,0.34-0.05,0.46-0.19c0.13-0.14,0.17-0.37,0.11-0.62c-0.07-0.3-0.32-0.44-0.51-0.63c-0.21-0.21-0.4-0.75-0.36-1.5
				c0.18,0.06,0.41-0.02,0.67-0.23c-0.03,0.19-0.02,0.33,0.02,0.33c0.06,0,0.12-0.34,0.35-0.64c0.19-0.24,0.36-0.35,0.66-0.4
				c0.65-0.12,0.91,0.44,1.01,0.39c0.03-0.02-0.05-0.37-0.25-0.66c0.49-0.12,1.03-0.13,1.59,0.01c-0.2,0.29-0.28,0.63-0.24,0.65
				c0.09,0.04,0.27-0.46,0.91-0.4c0.27,0.03,0.49,0.14,0.66,0.4c0.16,0.23,0.25,0.65,0.31,0.64c0.04,0,0.06-0.15,0.05-0.35
				c0.25,0.22,0.57,0.31,0.82,0.2c0.01,0.66-0.16,1.46-0.42,1.69c-0.33,0.28-0.44,0.46-0.47,0.7c-0.02,0.23,0.05,0.42,0.22,0.52
				c0.08,0.05,0.17,0.08,0.25,0.09c-0.01,0.08-0.01,0.15-0.02,0.23c-0.14-0.17-0.28-0.26-0.3-0.26c-0.04,0.01-0.27,0.42-0.87,0.41
				c0.11-0.17,0.16-0.36,0.17-0.57v0c0-0.17-0.03-0.35-0.09-0.51c0.27-0.24,0.43-0.7,0.43-1.22c0-0.81-0.37-1.4-0.88-1.4
				c-0.55,0-0.88,0.52-0.88,1.4c0,0.08,0,0.15,0.01,0.22c-0.15-0.03-0.31-0.04-0.48-0.04c-0.14,0-0.27,0.02-0.4,0.04
				c0.01-0.07,0.01-0.15,0.01-0.22c0-0.87-0.33-1.4-0.88-1.4c-0.51,0-0.88,0.59-0.88,1.4c0,0.51,0.16,0.96,0.42,1.2
				c-0.06,0.16-0.08,0.33-0.07,0.51c0.01,0.24,0.08,0.44,0.2,0.62C64.54,97.7,64.34,97.18,64.29,97.18z M66.08,99.51
				c-0.01-0.05-0.02-0.09-0.02-0.14c0.08-0.04,0.17-0.08,0.25-0.13c0.35,0.01,0.85,0,1.21-0.01c0.1,0.05,0.22,0.1,0.33,0.13
				c0,0.04-0.01,0.08-0.01,0.12C67.44,99.58,66.41,99.58,66.08,99.51z M67.67,100.12c-0.16,0.37-0.4,0.61-0.71,0.6
				c-0.3,0-0.53-0.25-0.69-0.59c0.08-0.29,0.4-0.39,0.67-0.39C67.24,99.75,67.59,99.88,67.67,100.12z M66.55,99.09
				c0.12-0.09,0.24-0.2,0.36-0.32c0.09,0.11,0.21,0.22,0.35,0.31C67.03,99.08,66.77,99.09,66.55,99.09z M66.93,98.06
				c-0.98-0.02-1.59-0.42-1.63-1.09c-0.04-0.76,0.64-1.27,1.59-1.29c0.95-0.02,1.67,0.58,1.66,1.32
				C68.54,97.57,67.99,98.08,66.93,98.06z M66.04,94.62c-0.28,0-0.38,0.28-0.38,0.62c0,0.21,0.04,0.39,0.13,0.5
				c-0.09,0.05-0.18,0.11-0.25,0.18c-0.09-0.16-0.13-0.38-0.13-0.64c0-0.61,0.17-0.92,0.51-0.95c0.11-0.01,0.19,0.02,0.26,0.09
				c0.05,0.1,0.08,0.21,0.11,0.32C66.22,94.67,66.14,94.62,66.04,94.62z M66.25,95.21c0,0.12-0.04,0.22-0.14,0.22
				c-0.1,0-0.14-0.1-0.14-0.22c0-0.12,0.04-0.22,0.14-0.22C66.22,94.98,66.25,95.08,66.25,95.21z M65.91,94.25
				c-0.39,0.03-0.59,0.38-0.59,1.03c0,0.28,0.05,0.53,0.15,0.7c-0.09,0.09-0.2,0.22-0.26,0.34c-0.2-0.22-0.33-0.61-0.33-1.04
				c0-0.72,0.3-1.23,0.72-1.23c0.21,0,0.36,0.09,0.46,0.22C66.03,94.25,65.97,94.24,65.91,94.25z M67.81,94.63
				c-0.1,0-0.18,0.05-0.24,0.12c0.02-0.11,0.06-0.22,0.11-0.32c0.06-0.07,0.14-0.1,0.25-0.09c0.35,0.03,0.51,0.34,0.51,0.95
				c0,0.27-0.05,0.51-0.15,0.67c-0.08-0.07-0.16-0.13-0.25-0.19c0.1-0.11,0.15-0.3,0.15-0.52C68.19,94.9,68.1,94.63,67.81,94.63z
				 M67.87,95.21c0,0.12-0.03,0.22-0.14,0.22c-0.1,0-0.14-0.1-0.14-0.22c0-0.12,0.03-0.22,0.14-0.22
				C67.83,94.99,67.87,95.09,67.87,95.21z M68.35,96.01c0.11-0.17,0.17-0.43,0.17-0.73c0-0.65-0.2-1-0.59-1.03
				c-0.06,0-0.12,0-0.16,0.02c0.11-0.13,0.25-0.22,0.46-0.22c0.42,0,0.72,0.52,0.72,1.23c0,0.45-0.13,0.85-0.35,1.06
				C68.54,96.23,68.46,96.11,68.35,96.01z M64.45,99.46c0.36,0.16,0.9,0.19,1.45-0.02c0.1,0.66,0.43,1.44,1.05,1.45
				c0.65,0.01,0.99-0.78,1.06-1.48c0.46,0.12,0.96,0.1,1.34-0.11c-0.33,0.92-0.81,1.76-1.43,2.24l0.01,0.41
				c-0.46,0.29-1.47,0.31-2.02,0.03v-0.5C65.24,101.01,64.77,100.26,64.45,99.46z M68.1,104.32c-0.31-0.02-0.66-0.03-1.02-0.03
				c-0.44-0.01-0.88,0-1.26,0.02c0.01-0.73,0.01-1.41,0.04-2.02c0.72,0.25,1.68,0.21,2.2-0.09C68.1,102.84,68.09,103.55,68.1,104.32
				z M63.93,105.52c0.1-0.46,0.45-0.81,0.8-0.71c0.35,0.09,0.55,0.57,0.44,1.06c-0.11,0.52-0.49,0.79-0.8,0.71
				C64.03,106.49,63.83,106.01,63.93,105.52z M64.32,106.78c0.46,0.12,0.93-0.26,1.05-0.86c0.12-0.56-0.11-1.17-0.59-1.3
				c-0.3-0.08-0.57,0.05-0.76,0.27c0.22-0.71,0.56-1.56,0.93-2.45c0.21-0.09,0.43-0.16,0.66-0.22c-0.06,0.75-0.05,1.58-0.07,2.47
				c-0.01,0.46-0.02,0.94-0.08,1.41c-0.05,0.42-0.41,0.85-0.86,0.87c-0.46,0.05-0.85-0.34-0.84-0.79
				C63.85,106.47,64.05,106.7,64.32,106.78z M65.96,120.38c-0.01,0.04-0.12,0.13-0.21,0.15c-0.24,0.05-0.64,0.06-0.86,0.05
				l-0.02-0.22c-0.8,0.42-2.42,0.3-3.24,0.27c-0.17-0.01-0.27-0.07-0.32-0.19c-0.04-0.08-0.07-0.25-0.09-0.46
				c1.08,0.21,3.79,0.14,4.77-0.03C65.98,120.13,65.98,120.29,65.96,120.38z M66.02,119.69c-0.98,0.21-4.09,0.25-4.93,0.01
				c-0.16-0.15-0.41-0.55-0.48-1.05c-0.06-0.37-0.03-0.91,0.43-1.35c0.47-0.45,1.12-0.46,1.58-0.42c1.45,0.11,2.4,1.34,2.51,1.36
				c0.04,0.01,0.03-0.09-0.06-0.24c0.4,0.17,0.82,0.23,1.13,0.17C66.35,118.56,66.29,119.34,66.02,119.69z M72.6,120.44
				c-0.05,0.12-0.15,0.18-0.32,0.19c-0.82,0.03-2.45,0.15-3.24-0.27l-0.02,0.22c-0.22,0.01-0.61,0-0.86-0.05
				c-0.1-0.02-0.2-0.11-0.21-0.15c-0.02-0.09-0.02-0.25-0.02-0.43c0.98,0.18,3.68,0.24,4.77,0.03
				C72.67,120.2,72.64,120.36,72.6,120.44z M72.87,117.3c0.45,0.44,0.48,0.98,0.43,1.35c-0.07,0.5-0.32,0.9-0.48,1.05
				c-0.83,0.24-3.94,0.2-4.93-0.01c-0.27-0.35-0.33-1.13-0.18-1.52c0.31,0.06,0.73,0,1.13-0.17c-0.09,0.15-0.1,0.25-0.06,0.24
				c0.11-0.02,1.07-1.26,2.51-1.37C71.75,116.85,72.4,116.85,72.87,117.3z M71.42,116.12c0.21,0.08,0.45,0.24,0.58,0.44
				c-0.97-0.13-2.07,0.31-2.79,0.98c-0.68,0.41-1.47,0.32-1.59,0.13c-0.07-0.11-0.04-0.36,0.22-0.68c0,0-0.28-4.15-0.34-5.18
				c0.58-0.11,0.92-0.39,0.87-0.45c-0.03-0.04-0.7,0.19-1.37,0.19c-0.67,0-1.37-0.24-1.4-0.2c-0.04,0.05,0.25,0.32,0.8,0.45
				c0,0.01-0.34,5.2-0.34,5.2c0.26,0.32,0.3,0.57,0.22,0.68c-0.12,0.19-0.9,0.28-1.59-0.13c-0.71-0.67-1.82-1.11-2.79-0.98
				c0.12-0.21,0.37-0.36,0.58-0.44c0.2-1.08,0.77-4.23,1-5.94c-0.63-0.96-0.57-2.43-0.28-3.9c0.08-0.13,0.18-0.29,0.3-0.44
				c-0.01,0.1-0.03,0.21-0.03,0.32c-0.03,0.57,0.52,1.14,1.14,1.07c0.61-0.04,1.05-0.57,1.11-1.11c0.06-0.47,0.08-1.37,0.08-1.51
				c0.41-0.03,0.84-0.04,1.27-0.04c0.35,0,0.7,0.02,1.03,0.04c0,0.12,0.02,1.04,0.08,1.52c0.06,0.54,0.5,1.07,1.11,1.11
				c0.62,0.07,1.17-0.5,1.14-1.07c-0.01-0.11-0.02-0.22-0.03-0.32c0.11,0.16,0.22,0.31,0.3,0.44c0.29,1.46,0.35,2.94-0.28,3.9
				C70.65,111.9,71.22,115.04,71.42,116.12z M74.76,111.87c0-0.03,0-0.06-0.01-0.09c-0.02-0.19-0.07-0.21-0.1-0.07
				c-0.05,0.25-0.19,0.53-0.31,0.61c0-0.08,0-0.18-0.01-0.28c-0.03-0.2-0.11-0.11-0.13-0.01c-0.08,0.32-0.26,0.69-0.58,0.78
				c0.04-0.06,0.06-0.13,0.08-0.19c0.11-0.47,0-0.65-0.09-0.39c-0.25,0.69-0.81,1.08-1.37,1.1c-0.46,0.02-0.83-0.25-1.09-0.77
				c-0.02-0.12-0.04-0.25-0.06-0.37c0.23-0.1,0.44-0.25,0.61-0.42c0.12,0.18,0.27,0.37,0.4,0.52c-0.03,0.08-0.04,0.17-0.04,0.26
				c0,0.1,0.07,0.1,0.11,0.02c0.03-0.06,0.15-0.21,0.23-0.33c0.01-0.02,0.01-0.02-0.01-0.04c-0.21-0.24-0.51-0.65-0.67-0.91
				c0-0.01-0.02-0.01-0.03,0.01c-0.14,0.25-0.37,0.46-0.66,0.6c-0.1-0.61-0.19-1.19-0.26-1.67c0.1-0.16,0.18-0.33,0.24-0.51
				c0.21-0.16,0.33-0.26,0.41-0.32c0.09-0.07,0.11-0.13-0.08-0.09c-0.09,0.02-0.13,0.02-0.22,0.06c0.06-0.26,0.1-0.54,0.11-0.83
				c1.44-0.78,2.02-0.73,2.23-0.55c0.17,0.14,0.23,0.45,0.01,0.68c-0.13,0.03-0.29,0.07-0.4,0.12c-0.25,0.1-0.39,0.23-0.02,0.17
				c0.12-0.02,0.44-0.09,0.6-0.06c0.3,0.15,0.7,0.51,0.97,1.06C75.08,110.89,74.87,111.58,74.76,111.87z" />
                <path class="st2" d="M73.46,110.15c-0.04,0.02,0.01,0.53,0.04,0.66c0.04,0.14,0.15,0.22,0.26,0.2c0.11-0.02,0.2-0.14,0.17-0.31
				C73.89,110.52,73.52,110.12,73.46,110.15z" />
                <path class="st2" d="M72.87,110.26c-0.06-0.01-0.18,0.42-0.18,0.61c0,0.18,0.1,0.34,0.22,0.33c0.16-0.01,0.22-0.15,0.22-0.33
				C73.13,110.68,72.92,110.26,72.87,110.26z" />
                <path class="st2" d="M64.91,106.02c0.13-0.23,0.1-0.53,0.05-0.62c-0.04-0.07-0.07-0.06-0.07,0.01c0,0.07-0.05,0.32-0.14,0.49
				c-0.12,0.21-0.3,0.35-0.33,0.36c-0.03,0.01-0.02,0.05,0.01,0.06C64.52,106.35,64.76,106.28,64.91,106.02z" />
                <path class="st2" d="M66.96,101.42c0.3,0,0.49-0.28,0.45-0.31c-0.03-0.03-0.15,0.12-0.44,0.12c-0.26,0-0.37-0.14-0.42-0.12
				C66.5,101.13,66.65,101.42,66.96,101.42z" />
                <path class="st2" d="M73.88,109.98c-0.04,0.03,0.19,0.38,0.28,0.48c0.1,0.12,0.21,0.19,0.29,0.14c0.09-0.05,0.11-0.21,0.02-0.33
				C74.34,110.1,73.96,109.93,73.88,109.98z" />
            </g>
        </g>
    </g>
    <g id="shell_outer">
        <g id="shell">
            <g id="g4754" transform="translate(266.0203,318.5599)">
                <path id="path4756" class="st2" d="M-203.33-223.18c-0.03-0.13-0.06-0.26-0.11-0.4c-0.04-0.12-0.07-0.33-0.55-0.33
				c-0.37,0-1.16,0.48-1.31,0.58c-1,0.6-2.74,1.58-5.04,1.56c-1.51-0.02-1.16-1.29-0.6-1.44c0,0.05,0.01,0.09,0.03,0.11
				c0.07,0.09,0.2,0.17,0.33,0.2c2.51,0.51,5.22-2.09,6.6-2.07C-202.69-224.95-202.7-223.74-203.33-223.18 M-203.74-221.82
				c-0.53,0.73-1.38,0.65-1.89,0.18c-0.08-0.08-0.14-0.16-0.11-0.07c0.09,0.25,0.52,0.64,1.05,0.66c-0.09,0.08-0.19,0.16-0.28,0.23
				c-0.53,0.1-1.38-0.19-1.83-0.74c0.15-0.15,0.23-0.4,0.13-0.76c0.38-0.19,0.82-0.44,1.22-0.66c0.22,1,1.33,1.02,1.46,0.34
				c0.01-0.03,0.01-0.06-0.02-0.02c-0.02,0.03-0.09,0.11-0.15,0.12c0.02-0.01,0.16-0.37,0.03-0.76c0.2-0.24,0.44-0.26,0.48-0.22
				C-203.55-223.39-203.25-222.51-203.74-221.82 M-207.81-221.9c0.17,0.43,0.58,0.56,0.88,0.42c0.43,0.51,1.18,0.84,1.8,0.76
				c-0.38,0.24-0.77,0.38-1.12,0.47c-0.88,0.06-1.81-0.54-2.2-1.49C-208.22-221.8-208-221.85-207.81-221.9 M-207.29-220.12
				c-0.12,0-0.52,0-1-0.13c-0.4-0.18-0.8-0.51-1.04-0.93c0.12-0.07,0.2-0.23,0.18-0.44c0.19-0.03,0.38-0.07,0.57-0.11
				c0.38,0.94,1.12,1.49,1.98,1.54C-206.95-220.12-207.21-220.12-207.29-220.12 M-210.16-221.52c0.07,0,0.14,0,0.21-0.01
				c0.12,0.27,0.3,0.39,0.45,0.4c0.16,0.27,0.43,0.53,0.67,0.7C-209.29-220.63-209.78-220.97-210.16-221.52 M-209.97-225.54
				c0.06,0.09,0.18,0.2,0.3,0.26c-0.09,0.21-0.33,1.2-0.34,1.53c-0.22,0.14-0.48,0.49-0.53,0.63c-0.09-0.04-0.06-0.1-0.07-0.21
				C-210.65-223.89-210.4-224.85-209.97-225.54 M-209.6-226.01c1.15-1.11,2.51-1.03,3.16-0.91c-0.36,0.18-0.66,0.47-0.83,0.7
				c-0.88-0.03-1.66,0.32-2.27,0.82c-0.13-0.07-0.23-0.18-0.29-0.35C-209.76-225.85-209.68-225.94-209.6-226.01 M-206.62-224.76
				c0.13,0.02,0.46,0.18,0.64,0.31c-0.28,0.15-0.61,0.31-0.9,0.46C-206.81-224.23-206.67-224.63-206.62-224.76 M-209.21-223.1
				c-0.16-0.18-0.43-0.46-0.64-0.63c0.05-0.34,0.28-1.27,0.35-1.47c0.63-0.48,1.74-0.83,2.19-0.83c0.15,0.34,0.42,0.92,0.59,1.22
				c-0.13,0.14-0.36,0.69-0.44,0.97c-0.31,0.15-0.57,0.28-0.7,0.34C-208.18-223.38-208.69-223.2-209.21-223.1 M-209.96-223.63
				c0.11,0.12,0.37,0.45,0.5,0.57c-0.3,0.04-0.6,0.05-0.86,0c0,0,0,0,0,0C-210.25-223.25-210.11-223.47-209.96-223.63
				 M-204.08-225.22c-0.29,0.03-0.64,0.13-1.07,0.34c-0.07,0.04-0.3,0.15-0.59,0.3c-0.17-0.1-0.54-0.31-0.86-0.31
				c-0.05-0.22-0.4-0.97-0.52-1.2c0.14-0.15,0.6-0.57,1-0.75c0.01,0,0.01,0,0.02,0.01C-205.07-226.47-204.43-225.79-204.08-225.22
				 M-202.92-224.86c-0.09-0.09-0.33-0.33-0.8-0.37c-0.69-1.21-1.75-1.66-2.21-1.85c-0.98-0.4-2.77-0.35-3.92,0.9
				c-0.61,0.66-1,1.6-1.08,2.73c-0.95,0.21-1.21,1.65,0.23,1.89c0.07,0.01,0.15,0.02,0.22,0.03c0.95,1.62,2.7,1.69,3.3,1.68
				c0.31-0.01,1.81-0.11,2.86-1.26c0.26-0.08,0.53-0.28,0.78-0.62c0.11-0.15,0.32-0.6,0.25-1.23
				C-202.18-223.76-202.79-224.72-202.92-224.86" />
            </g>
            <g id="g4742" transform="translate(218.2537,356.7669)">
                <path id="path4744" class="st0" d="M-160.38-265.24c-1.79,0.41-2.72,2.35-2.62,3.87c0,0,0.05,0.27,1.03,0.26
				c1.48-0.02,4.38-1.85,5.16-2.08c0.57-0.17,0.75-0.14,0.75-0.14S-157.47-265.9-160.38-265.24" />
            </g>
            <g id="g4746" transform="translate(265.4266,317.1956)">
                <path id="path4748" class="st1" d="M-202.79-221.67c0,0,0.93-0.43,0.61-1.36c-0.28-0.82-1.26-0.75-1.85-0.58
				c-0.59,0.17-3.4,2.01-5.15,2.09c-1.15,0.06-1.08-0.42-1.08-0.42s-0.74,0.12-0.7,0.82c0.03,0.54,0.49,0.84,1.24,0.84
				c3.47,0,5.23-2.02,6.4-2.11C-202.88-222.42-202.79-221.67-202.79-221.67" />
            </g>
            <g id="g4750" transform="translate(196.4813,303.0267)">
                <path id="path4752" class="st11" d="M-140.81-206.08c0,0,0.96,1.95,3.52,1.6c1.87-0.25,2.35-1.15,2.35-1.15s0.66-0.19,0.96-0.77
				c0.39-0.75-0.04-1.83-0.23-1.85c-0.99-0.1-1.74,0.98-4.03,1.73C-139.8-206-140.81-206.08-140.81-206.08z" />
            </g>
        </g>
    </g>
    <g id="Layer_1">
        <g>
            <g transform="translate(1 1)">
                <rect x="-0.52" y="92.21" class="st12" width="26.99" height="27.95" />
                <g>
                    <path d="M26.47,92.21h-6.75h-6.75H6.23h-6.75C-0.81,92.21-1,92.4-1,92.69v3.86v3.86v3.86v3.86v3.86v3.86v3.86
					c0,0.29,0.19,0.48,0.48,0.48h6.75h6.75h6.75h6.75c0.29,0,0.48-0.19,0.48-0.48v-3.86v-3.86v-3.86v-3.86v-3.86v-3.86v-3.86
					C26.95,92.4,26.76,92.21,26.47,92.21z M19.72,115.34h-2.89v-2.89h2.89h2.89v2.89H19.72z M12.98,115.34h-2.89v-2.89h2.89h2.89
					v2.89H12.98z M6.23,115.34H3.34v-2.89h2.89h2.89v2.89H6.23z M-0.04,115.34v-2.89h2.41v2.89H-0.04z M6.23,97.03h2.89v2.89H6.23
					H3.34v-2.89H6.23z M12.98,97.03h2.89v2.89h-2.89h-2.89v-2.89H12.98z M19.72,97.03h2.89v2.89h-2.89h-2.89v-2.89H19.72z
					 M25.99,97.03v2.89h-2.41v-2.89H25.99z M25.99,103.77H23.1H20.2v-2.89h2.89h2.89V103.77z M25.99,107.63h-2.41v-2.89h2.41V107.63
					z M25.99,111.48H23.1H20.2v-2.89h2.89h2.89V111.48z M16.35,111.48h-2.89v-2.89h2.89h2.89v2.89H16.35z M9.6,111.48H6.71v-2.89
					H9.6h2.89v2.89H9.6z M2.86,111.48h-2.89v-2.89h2.89h2.89v2.89H2.86z M-0.04,104.74h2.41v2.89h-2.41
					C-0.04,107.63-0.04,104.74-0.04,104.74z M-0.04,100.88h2.89h2.89v2.89H2.86h-2.89V100.88z M9.6,100.88h2.89v2.89H9.6H6.71v-2.89
					H9.6z M16.35,100.88h2.89v2.89h-2.89h-2.89v-2.89H16.35z M22.61,107.63h-2.89h-2.89v-2.89h2.89h2.89V107.63z M12.98,107.63
					h-2.89v-2.89h2.89h2.89v2.89H12.98z M6.23,107.63H3.34v-2.89h2.89h2.89v2.89H6.23z M2.37,99.92h-2.41v-2.89h2.41V99.92z
					 M23.58,112.45h2.41v2.89h-2.41V112.45z M25.99,96.06H23.1H20.2v-2.89h5.78V96.06z M19.24,96.06h-2.89h-2.89v-2.89h5.78
					L19.24,96.06L19.24,96.06z M12.49,96.06H9.6H6.71v-2.89h5.78V96.06L12.49,96.06z M-0.04,93.17h5.78v2.89H2.86h-2.89V93.17z
					 M-0.04,116.3h2.89h2.89v2.89h-5.78V116.3z M6.71,116.3H9.6h2.89v2.89H6.71V116.3z M13.46,116.3h2.89h2.89v2.89h-5.78V116.3z
					 M25.99,119.19H20.2v-2.89h2.89h2.89L25.99,119.19L25.99,119.19z" />
                </g>
            </g>
        </g>
        <g>
            <rect x="32.83" y="98.03" class="st13" width="18.31" height="18.31" />
            <rect x="32.83" y="93.21" class="st14" width="23.13" height="4.82" />
            <rect x="51.14" y="98.03" class="st15" width="4.82" height="23.13" />
            <rect x="28.01" y="116.34" class="st14" width="23.13" height="4.82" />
            <rect x="28.01" y="93.21" class="st15" width="4.82" height="23.13" />
            <g>
                <circle class="st16" cx="54.04" cy="94.65" r="0.48" />
                <circle class="st16" cx="52.11" cy="94.65" r="0.48" />
                <circle class="st16" cx="54.04" cy="96.58" r="0.48" />
                <circle class="st16" cx="52.11" cy="96.58" r="0.48" />
                <circle class="st16" cx="54.52" cy="119.23" r="0.48" />
                <circle class="st16" cx="54.52" cy="117.3" r="0.48" />
                <circle class="st16" cx="52.59" cy="119.23" r="0.48" />
                <circle class="st16" cx="52.59" cy="117.3" r="0.48" />
                <circle class="st16" cx="29.94" cy="119.71" r="0.48" />
                <circle class="st16" cx="31.87" cy="119.71" r="0.48" />
                <circle class="st16" cx="29.94" cy="117.78" r="0.48" />
                <circle class="st16" cx="31.87" cy="117.78" r="0.48" />
                <circle class="st16" cx="29.46" cy="95.13" r="0.48" />
                <circle class="st16" cx="29.46" cy="97.06" r="0.48" />
                <circle class="st16" cx="31.39" cy="95.13" r="0.48" />
                <circle class="st16" cx="31.39" cy="97.06" r="0.48" />
            </g>
            <polygon class="st17" points="46.55,116.34 51.14,111.74 51.14,106.29 41.09,116.34 		" />
            <polygon class="st17"
                points="51.14,100.84 51.14,98.03 48.5,98.03 32.83,113.7 32.83,116.34 35.64,116.34 		" />
            <polygon class="st17" points="32.83,108.24 43.05,98.03 37.6,98.03 32.83,102.79 		" />
        </g>
        <g>
            <g transform="translate(1 1)">
                <rect x="55.51" y="92.21" class="st12" width="26.99" height="27.95" />
                <g>
                    <path d="M82.49,92.21h-6.75H69h-6.75h-6.75c-0.29,0-0.48,0.19-0.48,0.48v3.86v3.86v3.86v3.86v3.86v3.86v3.86
					c0,0.29,0.19,0.48,0.48,0.48h6.75H69h6.75h6.75c0.29,0,0.48-0.19,0.48-0.48v-3.86v-3.86v-3.86v-3.86v-3.86v-3.86v-3.86
					C82.98,92.4,82.78,92.21,82.49,92.21z M75.75,115.34h-2.89v-2.89h2.89h2.89v2.89H75.75z M69,115.34h-2.89v-2.89H69h2.89v2.89H69
					z M62.25,115.34h-2.89v-2.89h2.89h2.89v2.89H62.25z M55.99,115.34v-2.89h2.41v2.89H55.99z M62.25,97.03h2.89v2.89h-2.89h-2.89
					v-2.89H62.25z M69,97.03h2.89v2.89H69h-2.89v-2.89H69z M75.75,97.03h2.89v2.89h-2.89h-2.89v-2.89H75.75z M82.01,97.03v2.89H79.6
					v-2.89H82.01z M82.01,103.77h-2.89h-2.89v-2.89h2.89h2.89V103.77z M82.01,107.63H79.6v-2.89h2.41V107.63z M82.01,111.48h-2.89
					h-2.89v-2.89h2.89h2.89V111.48z M72.37,111.48h-2.89v-2.89h2.89h2.89v2.89H72.37z M65.63,111.48h-2.89v-2.89h2.89h2.89v2.89
					H65.63z M58.88,111.48h-2.89v-2.89h2.89h2.89v2.89H58.88z M55.99,104.74h2.41v2.89h-2.41
					C55.99,107.63,55.99,104.74,55.99,104.74z M55.99,100.88h2.89h2.89v2.89h-2.89h-2.89V100.88z M65.63,100.88h2.89v2.89h-2.89
					h-2.89v-2.89H65.63z M72.37,100.88h2.89v2.89h-2.89h-2.89v-2.89H72.37z M78.64,107.63h-2.89h-2.89v-2.89h2.89h2.89V107.63z
					 M69,107.63h-2.89v-2.89H69h2.89v2.89H69z M62.25,107.63h-2.89v-2.89h2.89h2.89v2.89H62.25z M58.4,99.92h-2.41v-2.89h2.41V99.92
					z M79.6,112.45h2.41v2.89H79.6V112.45z M82.01,96.06h-2.89h-2.89v-2.89h5.78V96.06z M75.27,96.06h-2.89h-2.89v-2.89h5.78V96.06
					L75.27,96.06z M68.52,96.06h-2.89h-2.89v-2.89h5.78V96.06L68.52,96.06z M55.99,93.17h5.78v2.89h-2.89h-2.89V93.17z M55.99,116.3
					h2.89h2.89v2.89h-5.78V116.3z M62.73,116.3h2.89h2.89v2.89h-5.78V116.3z M69.48,116.3h2.89h2.89v2.89h-5.78V116.3z
					 M82.01,119.19h-5.78v-2.89h2.89h2.89L82.01,119.19L82.01,119.19z" />
                </g>
            </g>
        </g>
        <g id="right_crate">
            <rect x="88.86" y="98.03" class="st13" width="18.31" height="18.31" />
            <rect x="88.86" y="93.21" class="st14" width="23.13" height="4.82" />
            <rect x="107.17" y="98.03" class="st15" width="4.82" height="23.13" />
            <rect x="84.04" y="116.34" class="st14" width="23.13" height="4.82" />
            <rect x="84.04" y="93.21" class="st15" width="4.82" height="23.13" />
            <g>
                <circle class="st16" cx="110.06" cy="94.65" r="0.48" />
                <circle class="st16" cx="108.13" cy="94.65" r="0.48" />
                <circle class="st16" cx="110.06" cy="96.58" r="0.48" />
                <circle class="st16" cx="108.13" cy="96.58" r="0.48" />
                <circle class="st16" cx="110.54" cy="119.23" r="0.48" />
                <circle class="st16" cx="110.54" cy="117.3" r="0.48" />
                <circle class="st16" cx="108.61" cy="119.23" r="0.48" />
                <circle class="st16" cx="108.61" cy="117.3" r="0.48" />
                <circle class="st16" cx="85.96" cy="119.71" r="0.48" />
                <circle class="st16" cx="87.89" cy="119.71" r="0.48" />
                <circle class="st16" cx="85.96" cy="117.78" r="0.48" />
                <circle class="st16" cx="87.89" cy="117.78" r="0.48" />
                <circle class="st16" cx="85.48" cy="95.13" r="0.48" />
                <circle class="st16" cx="85.48" cy="97.06" r="0.48" />
                <circle class="st16" cx="87.41" cy="95.13" r="0.48" />
                <circle class="st16" cx="87.41" cy="97.06" r="0.48" />
            </g>
            <polygon class="st17" points="102.57,116.34 107.17,111.74 107.17,106.29 97.12,116.34 		" />
            <polygon class="st17"
                points="107.17,100.84 107.17,98.03 104.53,98.03 88.86,113.7 88.86,116.34 91.67,116.34 		" />
            <polygon class="st17" points="88.86,108.24 99.07,98.03 93.62,98.03 88.86,102.79 		" />
        </g>
        <g>
            <g transform="translate(1 1)">
                <rect x="111.53" y="92.21" class="st12" width="26.99" height="27.95" />
                <g>
                    <path d="M138.52,92.21h-6.75h-6.75h-6.75h-6.75c-0.29,0-0.48,0.19-0.48,0.48v3.86v3.86v3.86v3.86v3.86v3.86v3.86
					c0,0.29,0.19,0.48,0.48,0.48h6.75h6.75h6.75h6.75c0.29,0,0.48-0.19,0.48-0.48v-3.86v-3.86v-3.86v-3.86v-3.86v-3.86v-3.86
					C139,92.4,138.81,92.21,138.52,92.21z M131.77,115.34h-2.89v-2.89h2.89h2.89v2.89H131.77z M125.02,115.34h-2.89v-2.89h2.89h2.89
					v2.89H125.02z M118.28,115.34h-2.89v-2.89h2.89h2.89v2.89H118.28z M112.01,115.34v-2.89h2.41v2.89H112.01z M118.28,97.03h2.89
					v2.89h-2.89h-2.89v-2.89H118.28z M125.02,97.03h2.89v2.89h-2.89h-2.89v-2.89H125.02z M131.77,97.03h2.89v2.89h-2.89h-2.89v-2.89
					H131.77z M138.04,97.03v2.89h-2.41v-2.89H138.04z M138.04,103.77h-2.89h-2.89v-2.89h2.89h2.89V103.77z M138.04,107.63h-2.41
					v-2.89h2.41V107.63z M138.04,111.48h-2.89h-2.89v-2.89h2.89h2.89V111.48z M128.4,111.48h-2.89v-2.89h2.89h2.89v2.89H128.4z
					 M121.65,111.48h-2.89v-2.89h2.89h2.89v2.89H121.65z M114.9,111.48h-2.89v-2.89h2.89h2.89v2.89H114.9z M112.01,104.74h2.41v2.89
					h-2.41C112.01,107.63,112.01,104.74,112.01,104.74z M112.01,100.88h2.89h2.89v2.89h-2.89h-2.89V100.88z M121.65,100.88h2.89
					v2.89h-2.89h-2.89v-2.89H121.65z M128.4,100.88h2.89v2.89h-2.89h-2.89v-2.89H128.4z M134.66,107.63h-2.89h-2.89v-2.89h2.89h2.89
					V107.63z M125.02,107.63h-2.89v-2.89h2.89h2.89v2.89H125.02z M118.28,107.63h-2.89v-2.89h2.89h2.89v2.89H118.28z M114.42,99.92
					h-2.41v-2.89h2.41V99.92z M135.63,112.45h2.41v2.89h-2.41V112.45z M138.04,96.06h-2.89h-2.89v-2.89h5.78V96.06z M131.29,96.06
					h-2.89h-2.89v-2.89h5.78V96.06L131.29,96.06z M124.54,96.06h-2.89h-2.89v-2.89h5.78V96.06L124.54,96.06z M112.01,93.17h5.78
					v2.89h-2.89h-2.89V93.17z M112.01,116.3h2.89h2.89v2.89h-5.78V116.3z M118.76,116.3h2.89h2.89v2.89h-5.78V116.3z M125.51,116.3
					h2.89h2.89v2.89h-5.78V116.3z M138.04,119.19h-5.78v-2.89h2.89h2.89L138.04,119.19L138.04,119.19z" />
                </g>
            </g>
        </g>
    </g>
    <g id="Bomberman_outer">
    <g id="Bomberman">
        <g>
        <g id="back_leg_move">
            <g id="back_leg">
                <path class="st18" d="M13.15,115L13.15,115c-1.1,0.08-1.96,1.16-1.92,2.41l0.46,12.56c0.05,1.25,0.98,2.19,2.08,2.11h0
				c1.1-0.08,1.96-1.16,1.92-2.41l-0.46-12.56C15.18,115.86,14.25,114.92,13.15,115z" />
                <path class="st19" d="M22.58,134.66c0.17-2.25-4.59-6.71-9.93-4.56c-1.72,0.69-2.72,2.1-2.08,3.6c0.64,1.5,3.39,2.4,5.73,2.6
				C18.32,136.47,22.46,136.29,22.58,134.66z" />
            </g>
             </g>
            <g>
                <path class="st18" d="M12.97,78.07L12.97,78.07c-0.53-0.88-1.29-1.58-2.2-2.04l-1.65-0.83l0.64,0.8c0.5,0.62,0.76,1.39,0.75,2.18
				l0,0" />
                <circle class="st19" cx="9.02" cy="74.84" r="2.69" />
            </g>
            <g id="back_arm_move">
            <g id="back_arm">
                <path class="st18" d="M13.18,98.44L13.18,98.44c-1.02,0.04-1.84,1-1.84,2.15l0,11.58c0,1.15,0.83,2.05,1.85,2.01h0
				c1.02-0.04,1.84-1,1.84-2.15l0-11.58C15.02,99.31,14.2,98.4,13.18,98.44z" />
                <circle class="st19" cx="13.26" cy="114.32" r="3.17" />
            </g>
            </g>
            <g>
                <path class="st20" d="M18.97,93.14l1.93-0.08c0.26-0.01,0.46-0.23,0.45-0.48l-0.56-13.87c-0.01-0.26-0.23-0.46-0.48-0.45
				l-1.93,0.08c-0.26,0.01-0.46,0.23-0.45,0.48l0.56,13.87C18.5,92.95,18.71,93.15,18.97,93.14z" />
                <path class="st18" d="M6.75,77.93l10.5-0.42c2.62-0.11,4.85,2.55,4.99,5.92l0.24,5.86c0.14,3.38-1.87,6.2-4.49,6.31l-10.5,0.42
				c-2.62,0.11-4.85-2.55-4.99-5.92l-0.24-5.86C2.13,80.86,4.14,78.04,6.75,77.93z M18.13,93.13c2.62-0.11,2.86-1.82,2.72-5.19
				l-0.12-3.02c-0.14-3.38-0.15-5.23-2.76-5.12l0.54,13.33" />
                <path d="M19.9,87.5l0.22-0.01c0.03,0,0.05-0.03,0.05-0.05l-0.24-6.06c0-0.03-0.03-0.05-0.05-0.05l-0.22,0.01
				c-0.03,0-0.05,0.03-0.05,0.05l0.24,6.06C19.85,87.48,19.87,87.5,19.9,87.5z" />
                <path d="M19.1,87.54l0.22-0.01c0.03,0,0.05-0.03,0.05-0.05l-0.24-6.06c0-0.03-0.03-0.05-0.05-0.05l-0.22,0.01
				c-0.03,0-0.05,0.03-0.05,0.05l0.24,6.06C19.05,87.52,19.07,87.54,19.1,87.54z" />
            </g>

            <ellipse transform="matrix(0.9995 -0.0316 0.0316 0.9995 -3.4254 0.4728)" class="st21" cx="13.26" cy="108.73"
                rx="7.01" ry="13" />
            <rect x="6.28" y="107.44" transform="matrix(-0.9998 0.0179 -0.0179 -0.9998 28.4969 217.2593)" width="14"
                height="2.64" />
            <g id="front_leg_move">
            <g id="front_leg">
                <path class="st18" d="M12.97,115L12.97,115c-1.1,0.07-1.97,1.14-1.94,2.39l0.32,12.57c0.03,1.25,0.95,2.2,2.06,2.14h0
				c1.1-0.07,1.97-1.14,1.94-2.39l-0.32-12.57C14.99,115.88,14.07,114.93,12.97,115z" />
                <path class="st19" d="M22.19,134.76c0.2-2.25-4.52-6.76-9.88-4.67c-1.73,0.67-2.74,2.07-2.12,3.57c0.62,1.51,3.36,2.43,5.7,2.66
				C17.91,136.53,22.05,136.39,22.19,134.76z" />
            </g>
            </g>
            <g id="front_arm_move">
            <g id="front_arm">
            <g id="arm">
                <path class="st18" d="M13.04,98.57L13.04,98.57c-1.11,0.06-1.99,1.11-1.97,2.36l0.16,12.57c0.02,1.25,0.93,2.22,2.03,2.16h0
				c1.11-0.06,1.99-1.11,1.97-2.36l-0.16-12.57C15.05,99.49,14.14,98.52,13.04,98.57z" />
                <circle class="st19" cx="13.35" cy="115.81" r="3.45" />
            </g>
            </g>
            </g>
        </g>
        </g>
        <g id="stars">
            <polygon class="stars" id="star1" fill="yellow" stroke="black" stroke-width="0.25px" points="11.71,80.21 12.76,80.76 12.56,79.59 13.41,78.76 12.24,78.59 11.71,77.53 11.19,78.59 10.02,78.76 
		10.87,79.59 10.66,80.76 	"/>
            <polygon class="stars" id="star2" fill="yellow" stroke="black" stroke-width="0.25px" points="11.71,80.21 12.76,80.76 12.56,79.59 13.41,78.76 12.24,78.59 11.71,77.53 11.19,78.59 10.02,78.76 
		10.87,79.59 10.66,80.76 	"/>
            <polygon class="stars" id="star3" fill="yellow" stroke="black" stroke-width="0.25px" points="11.71,80.21 12.76,80.76 12.56,79.59 13.41,78.76 12.24,78.59 11.71,77.53 11.19,78.59 10.02,78.76 
		10.87,79.59 10.66,80.76 	"/>
        </g>
    </g>
    <g class="bomb_move">
    <g class="bomb_outter">
                <g class="bomb">
                    <g id="bomb_body_outer">
                    <g id="bomb_body_inner">
                        <path id="bomb_body" d="M21.29,123.7c0.31,0.32,0.38,0.8,0.2,1.19c0.18,0.16,0.21,0.43,0.06,0.62l-0.43,0.53c-0.15,0.19-0.43,0.21-0.62,0.07
				c-0.35,0.26-0.82,0.28-1.19,0.05c-0.5,0.38-1.07,0.7-1.69,0.94c-3.46,1.3-7.32-0.44-8.62-3.9c-1.3-3.46,0.44-7.32,3.9-8.62
				s7.32,0.44,8.62,3.9C22.17,120.25,22.04,122.12,21.29,123.7z" />
                        <path id="fuse" class="st22" d="M21.37,125.72L21.37,125.72c1.02,0.61,2.32-0.05,2.42-1.24l0.49-5.93c0.21-2.56,2.98-4.06,5.24-2.84
				l4.26,2.3" />
                    </g>
                        <g id="flame">
                            <polygon id="flame_path" class="st23" points="34.06,118.98 33.95,118.42 34.37,118.81 34.08,118.31 34.6,118.55 34.18,118.17 34.74,118.23 
				34.22,118 34.78,117.89 34.22,117.83 34.71,117.55 34.15,117.67 34.54,117.25 34.05,117.53 34.28,117.02 33.9,117.44 
				33.97,116.87 33.74,117.39 33.62,116.84 33.56,117.4 33.28,116.91 33.4,117.46 32.98,117.08 33.26,117.57 32.75,117.33 
				33.17,117.71 32.61,117.65 33.12,117.88 32.57,117.99 33.13,118.05 32.64,118.33 33.19,118.22 32.81,118.63 33.3,118.35 
				33.07,118.87 33.45,118.45 33.38,119.01 33.61,118.49 33.73,119.05 33.79,118.48 			" />
                        </g>
                    </g>
                </g>
            </g>
            </g>
</svg>