<svg id="Layer_1" data-name="Layer 1" xmlns="http://www.w3.org/2000/svg" viewBox="0 0 140 140">
<style type="text/css">
	.st0{fill:#FFFFFF;stroke:#000000;stroke-miterlimit:10;}

	#Layer_1:hover > #bomb
	{
		animation: bombAnimation 3s ease-in;
	}
	#Layer_1:hover > #boat
	{
		animation: boatAnimation 2s ease-in-out infinite;
	}
	#Layer_1:hover > .waves > use
	{
		animation: wavesAnimation 3s ease-in-out infinite;
	}

	#Layer_1:hover > #explosion
	{
		animation: explosionAnimation 3s ease-out;
	}
	
	#boat{
		transform-box: fill-box;
		transform-origin: 50% 50%;
	}

	@keyframes boatAnimation{
	  0%{transform: rotate(1deg)}
	  50%{transform: rotate(-2deg)} 
	  100%{transform: rotate(1deg)}
	}

	.waves > use {
	  transform-box: fill-box;
	  transform: translate(-250px , 60px) scaleX(4)
	}

	#Layer_1:hover > .waves > #wave1{animation-delay:-2s;}
  	#Layer_1:hover > .waves > #wave2{animation-delay:-2s; animation-duration:5s}
  	#Layer_1:hover > .waves > #wave3{animation-delay:-4s; animation-duration:3s}

	@keyframes wavesAnimation{
	  0%{transform: translate(-250px , 60px) scaleX(4)}
	  100%{transform: translate(-200px , 60px) scaleX(4)} 
	}
	

	#bomb {
		transform-box: fill-box;
		transform: rotate(-20deg) scale(0);
	}
	@keyframes bombAnimation {
		0%   {transform: rotate(-20deg) scale(0.4)}
		50% {transform:translate(40px,50px) rotate(-20deg) scale(0.41)}
		100% {transform:translate(40px,50px) rotate(-20deg) scale(0.41)}
	}

	#explosion {
		transform-box: fill-box;
		transform-origin: 50% 50%;
		transform:translate(45px,50px) scale(0);
	}
	@keyframes explosionAnimation {
		0%   {transform: translate(45px,50px) scale(0);}
		50%  {transform: translate(45px,50px) scale(0);}
		100% {transform: translate(45px,50px) scale(20) ;}
	}
</style>
	<path id="boat" d="M104.58,75.18c.22,0,.49-.11.66,0,2.3,2,4.87.92,7.32,1.26l.64.09c-.09.81-.53.6-.83.61-1.41,0-2.82,0-4.23.09-.4,0-1.07-.22-1.06.59s.69.48,1.06.47c7.22-.25,14.43-.54,21.65-.81.35,0,.7,0,1.22,0-.68,1-1.27,1.75-1.85,2.57a54.4,54.4,0,0,0-3.72,6.83c-.67,1.36-1.46,2-2.72,2-8.46-.05-16.92,0-25.38,0l-58.66.3c-4,0-7.93.07-11.9,0-1.78,0-3.56.2-5.34-.48-.73-.28-1.73-1-2.46.3,0,0-.26,0-.32-.16-.57-1.22-1.48-.86-2.26-.82s-1.25-.3-1.26-1.45-.47-1.59-1.3-1.8a5.88,5.88,0,0,1-4.73-5.21c-.3-1.73-.11-2,1.09-1.54a16,16,0,0,0,6.94.73c3.57-.16,7.13-.19,10.7-.12a3.13,3.13,0,0,0,1.74-.14v-.61H23.54l0-.63a14.3,14.3,0,0,1,3.81-.16c1.18-.06,2.37.2,3.41-1,.42-.47,1-.25,1.54-.25a17.47,17.47,0,0,0,3.68.17,1.79,1.79,0,0,1,.83,1.8c0,1-.64.61-.92,1,1.26-.07,3,.85,2.53-2.45,0-.36.52-.27.35-.94h-2.7a14.15,14.15,0,0,0-3.73-.25c0-1,.56-.57.87-.59,1.1,0,2.2,0,3.3,0a7.1,7.1,0,0,0,3.17-.81c1.63-.82,3.45-.5,5.19-.11.58.14.81.79.78,1.65,0,1-.54,1-1,.94s-.8.26-.71,1c.12,1,.69.63,1,.53,1.13-.31,1.34-1.48,1.12-2.81s.16-1.55,1.06-1.57c1.21,0,.68.9.63,1.63a1,1,0,0,0,.28.91c.18-1.39,1.74-1.31,1.57-3.11a.62.62,0,0,1,.45-.22c1.1.38,1.36-.63,1.56-1.75.25-.14,0-.86.49-.74.22,2.57,1.29,4.22,2.67,4.33,1,.07,1.4-.44,1.31-1.76,0-.71-.13-1.41-.2-2.19a3.42,3.42,0,0,1,2.05.08c1.47.68,1.3.06,1.82-1.48a7.68,7.68,0,0,0,.36-4,11.89,11.89,0,0,1,0-4.41c.37-2.11-1-2.86-1.8-4.49,1.82.68,2-.59,1.9-2.3-.05-1,.07-2,.13-3.31a2.27,2.27,0,0,1,.33,1.5,54.33,54.33,0,0,0,0,8c.46,3.38,0,6.68.1,10,.06,1.78.59,2.3,1.75,2.24.38,0,1-.47,1.13.34a1.61,1.61,0,0,1-.55,1.47c-.82.89-.41,2.27-.33,3.37.07.93.86.44,1.33.39,2.53-.24,2.55-.26,2.52-3.76a10,10,0,0,0-.32-3.72,3.81,3.81,0,0,1,1.4-2.93c.82-.24,1.64-.43,2.46-.67,1.69-.48,2-.11,2.07,2.31,0,1.36-.2,2.74.87,3.73.76.7,1.87.92,2,.14.18-.93,1.1-2.5-.19-3.41-.45-.32-.52-.69-.16-1,.72-.73.11-2,.66-2.83.27-.43-.38-.61-.69-.66-.5-.08-.44-.63-.56-1s.06-.42.22-.43c2.63-.17,2.36-2.94,2.49-5.31.07-1.26,0-2.55.06-3.81.1-1.62-1.06-1.93-1.5-3,1.76-1.18,2-1,2,1.54,0,2.85.06,5.7.24,8.53,0,.64.06,1,.67,1.23s1.42,0,1.29,1.43c0,.21.28.21.44.15,1.35-.54.25,1.87,1.18,1.84-.13.52-.5.55-.79.7a1.43,1.43,0,0,0-1,1.78c.14.71-.6.66-.51,1.43,1.27-.17,2.34.16,2.25,2.58.27-1.31.51-2.33,1.69-2,.8.25,1.7,0,2.48.28s1.9.19,1.87,2c0,.4.43.31.67.35a7.85,7.85,0,0,0,1.71.29c.85,0,1.09.54.94,1.56a2.15,2.15,0,0,0,1.23,2.54c.34.16.78.25,1-.07s.17-1.16.12-1.74-.47-.41-.76-.43c-.47,0-1,.17-1-.91s.28-1.61.86-1.74c1.65-.36,3.46-.74,4.94.09a8.35,8.35,0,0,0,4.07.87c.79,0,1.59,0,2.38,0,.34,0,.84-.26.92.6-1.13.29-2.34-.49-3.42.5a5,5,0,0,0-.77-.15c-1.86-.09-2.15.38-1.88,3,.06.5.13.75.54.73.87,0,1.74,0,2.74,0-.31-.87-.66-.61-.92-.71s-.86.21-.87-.67c0-.59-.11-1.24.41-1.57l.71-.45A8.27,8.27,0,0,0,104.58,75.18ZM18.93,85.54c-.37-.08-.5-.16-.62-.13-.46.13-.34.75-.48,1.15a.71.71,0,0,0,.09.79c.08.08.34,0,.36,0,.21-1,.48-1.08.91-.21a.72.72,0,0,0,.42-.28.78.78,0,0,0-.08-1A2.06,2.06,0,0,0,18.93,85.54Z" style="fill:#black;"/>

<path id="bomb" d="M28.62,8.22h-7.25c-0.37,0-0.6,0.37-0.42,0.67l2.66,4.29L21.6,23.5c-0.01,0.07-0.01,0.14-0.02,0.22h-0.02v14.87
	c0,1.76,1.54,3.19,3.44,3.19s3.44-1.43,3.44-3.19V23.72h-0.02c0-0.07,0-0.14-0.02-0.22l-2.03-10.33l2.66-4.29
	C29.22,8.59,28.99,8.22,28.62,8.22z"/>

<polygon id="explosion" class="st0" points="25,8.35 26.3,16.78 30.15,9.16 28.78,17.58 34.79,11.53 30.89,19.11 38.47,15.21 32.42,21.22 
	40.84,19.85 33.22,23.7 41.65,25 33.22,26.3 40.84,30.15 32.42,28.78 38.47,34.79 30.89,30.89 34.79,38.47 28.78,32.42 30.15,40.84 
	26.3,33.22 25,41.65 23.7,33.22 19.85,40.84 21.22,32.42 15.21,38.47 19.11,30.89 11.53,34.79 17.58,28.78 9.16,30.15 16.78,26.3 
	8.35,25 16.78,23.7 9.16,19.85 17.58,21.22 11.53,15.21 19.11,19.11 15.21,11.53 21.22,17.58 19.85,9.16 23.7,16.78 "/>

	<defs> 
<path id="wave" d="M55.97,27.11l-3.4-3.07c-1.5-1.36-3.94-1.36-5.44,0l-0.52,0.47c-1.5,1.36-3.94,1.36-5.44,0l-0.62-0.56
	c-1.5-1.36-3.94-1.36-5.44,0l-0.71,0.64c-1.5,1.36-3.94,1.36-5.44,0l-0.84-0.76c-1.5-1.36-3.94-1.36-5.44,0l-0.96,0.87
	c-1.5,1.36-3.94,1.36-5.44,0l-0.84-0.76c-1.5-1.36-3.94-1.36-5.44,0l-0.82,0.74c-1.5,1.36-3.94,1.36-5.44,0l-0.79-0.72
	c-1.5-1.36-3.94-1.36-5.44,0l-3.26,2.95l0,0l0,0L-6,27.14l0.25,0V50h61.43V27.11L55.97,27.11z"/>
  </defs>
  <g class="waves">
   <use href="#wave" id="wave1" x="50" y="0" fill="#4579e2"/>
   <use href="#wave" id="wave2"  x="50" y="3" fill="#3461c1"/>
   <use href="#wave" id="wave3" x="50" y="6" fill="#2d55aa"/>  
  </g>
</svg>

